<svg width="350" height="99" viewBox="0 0 350 99" fill="none" xmlns="http://www.w3.org/2000/svg">
<g clip-path="url(#clip0_205_20945)">
<rect width="350" height="99" rx="11" fill="white"/>
<path d="M240.486 121.578L237.992 117.244H237.992L240.486 121.578ZM251.472 110.251L255.906 107.941C255.049 106.296 253.352 105.261 251.497 105.251C249.642 105.242 247.935 106.26 247.061 107.897L251.472 110.251ZM201.312 111.027L196.978 113.521H196.978L201.312 111.027ZM211.863 71.8526L209.368 67.5193H209.368L211.863 71.8526ZM217.613 69.3285L219.109 74.0994C220.572 73.6406 221.744 72.536 222.288 71.1026C222.832 69.6692 222.688 68.0655 221.898 66.7517L217.613 69.3285ZM217.267 68.7414L221.601 66.247L221.601 66.247L217.267 68.7414ZM230.112 21.0509L227.618 16.7176L230.112 21.0509ZM272.397 26.7793L268.836 30.2892C270.154 31.6269 272.111 32.1128 273.902 31.5472C275.693 30.9816 277.016 29.46 277.328 27.6077L272.397 26.7793ZM292.538 -1.93098L290.043 -6.26432V-6.26432L292.538 -1.93098ZM316.491 -7.37555L316.093 -2.3914C318.503 -2.19905 320.706 -3.7592 321.324 -6.09686L316.491 -7.37555ZM318.243 -14L318.648 -18.9835C316.235 -19.1799 314.028 -17.6192 313.409 -15.2787L318.243 -14ZM391.511 -8.03782L396.509 -8.18339C396.435 -10.7307 394.457 -12.8146 391.917 -13.0213L391.511 -8.03782ZM395 111.748L395.115 116.747C396.446 116.716 397.71 116.156 398.627 115.19C399.543 114.224 400.037 112.933 399.998 111.602L395 111.748ZM253.946 115L249.512 117.311C250.393 119 252.157 120.043 254.062 119.999L253.946 115ZM242.98 125.911C248.643 122.651 253.011 117.985 255.883 112.606L247.061 107.897C245.046 111.672 241.985 114.946 237.992 117.244L242.98 125.911ZM196.978 113.521C206.26 129.646 226.856 135.193 242.98 125.911L237.992 117.244C226.654 123.771 212.172 119.87 205.645 108.533L196.978 113.521ZM209.368 67.5193C193.244 76.8011 187.697 97.3969 196.978 113.521L205.645 108.533C199.119 97.1945 203.019 82.7125 214.357 76.186L209.368 67.5193ZM216.117 64.5577C213.807 65.2821 211.544 66.2667 209.368 67.5193L214.357 76.186C215.897 75.2993 217.49 74.6072 219.109 74.0994L216.117 64.5577ZM212.934 71.2358C213.064 71.4607 213.195 71.6839 213.328 71.9054L221.898 66.7517C221.797 66.5848 221.698 66.4166 221.601 66.247L212.934 71.2358ZM227.618 16.7176C208.508 27.7177 201.934 52.1263 212.934 71.2358L221.601 66.247C213.356 51.924 218.283 33.6291 232.606 25.3843L227.618 16.7176ZM275.958 23.2693C263.52 10.6511 243.699 7.4608 227.618 16.7176L232.606 25.3843C244.649 18.4521 259.512 20.8299 268.836 30.2892L275.958 23.2693ZM290.043 -6.26432C277.572 0.914848 269.649 12.9582 267.466 25.9508L277.328 27.6077C279.025 17.5036 285.202 8.06095 295.032 2.40236L290.043 -6.26432ZM316.888 -12.3597C307.885 -13.0782 298.518 -11.1425 290.043 -6.26432L295.032 2.40236C301.717 -1.44585 309.062 -2.95247 316.093 -2.3914L316.888 -12.3597ZM321.324 -6.09686L323.077 -12.7213L313.409 -15.2787L311.657 -8.65424L321.324 -6.09686ZM317.837 -9.01647L391.106 -3.05429L391.917 -13.0213L318.648 -18.9835L317.837 -9.01647ZM386.513 -7.89224L390.002 111.893L399.998 111.602L396.509 -8.18339L386.513 -7.89224ZM394.885 106.749L253.831 110.001L254.062 119.999L395.115 116.747L394.885 106.749ZM258.38 112.689L255.906 107.941L247.038 112.562L249.512 117.311L258.38 112.689Z" fill="url(#paint0_linear_205_20945)"/>
</g>
<defs>
<linearGradient id="paint0_linear_205_20945" x1="222.5" y1="11" x2="281" y2="96.5" gradientUnits="userSpaceOnUse">
<stop stop-color="#FF635E"/>
<stop offset="1" stop-color="white"/>
</linearGradient>
<clipPath id="clip0_205_20945">
<rect width="350" height="99" rx="11" fill="white"/>
</clipPath>
</defs>
</svg>
