<svg width="350" height="190" viewBox="0 0 350 190" fill="none" xmlns="http://www.w3.org/2000/svg">
<g clip-path="url(#clip0_205_21051)">
<rect width="350" height="190" rx="11" fill="#FFE0DF"/>
<path d="M284.486 161.578L281.992 157.244H281.992L284.486 161.578ZM295.472 150.251L299.906 147.941C299.049 146.296 297.352 145.261 295.497 145.251C293.642 145.242 291.935 146.26 291.061 147.897L295.472 150.251ZM245.312 151.027L240.978 153.521H240.978L245.312 151.027ZM255.863 111.853L253.368 107.519H253.368L255.863 111.853ZM261.613 109.329L263.109 114.099C264.572 113.641 265.744 112.536 266.288 111.103C266.832 109.669 266.688 108.066 265.898 106.752L261.613 109.329ZM261.267 108.741L265.601 106.247L265.601 106.247L261.267 108.741ZM274.112 61.0509L271.618 56.7176L274.112 61.0509ZM316.397 66.7793L312.836 70.2892C314.154 71.6269 316.111 72.1128 317.902 71.5472C319.693 70.9816 321.016 69.46 321.328 67.6077L316.397 66.7793ZM336.538 38.069L334.043 33.7357V33.7357L336.538 38.069ZM360.491 32.6244L360.093 37.6086C362.503 37.801 364.706 36.2408 365.324 33.9031L360.491 32.6244ZM362.243 26L362.648 21.0165C360.235 20.8201 358.028 22.3808 357.409 24.7213L362.243 26ZM435.511 31.9622L440.509 31.8166C440.435 29.2693 438.457 27.1854 435.917 26.9787L435.511 31.9622ZM439 151.748L439.115 156.747C440.446 156.716 441.71 156.156 442.627 155.19C443.543 154.224 444.037 152.933 443.998 151.602L439 151.748ZM297.946 155L293.512 157.311C294.393 159 296.157 160.043 298.062 159.999L297.946 155ZM286.98 165.911C292.643 162.651 297.011 157.985 299.883 152.606L291.061 147.897C289.046 151.672 285.985 154.946 281.992 157.244L286.98 165.911ZM240.978 153.521C250.26 169.646 270.856 175.193 286.98 165.911L281.992 157.244C270.654 163.771 256.172 159.87 249.645 148.533L240.978 153.521ZM253.368 107.519C237.244 116.801 231.697 137.397 240.978 153.521L249.645 148.533C243.119 137.195 247.019 122.712 258.357 116.186L253.368 107.519ZM260.117 104.558C257.807 105.282 255.544 106.267 253.368 107.519L258.357 116.186C259.897 115.299 261.49 114.607 263.109 114.099L260.117 104.558ZM256.934 111.236C257.064 111.461 257.195 111.684 257.328 111.905L265.898 106.752C265.797 106.585 265.698 106.417 265.601 106.247L256.934 111.236ZM271.618 56.7176C252.508 67.7177 245.934 92.1263 256.934 111.236L265.601 106.247C257.356 91.924 262.283 73.6291 276.606 65.3843L271.618 56.7176ZM319.958 63.2693C307.52 50.6511 287.699 47.4608 271.618 56.7176L276.606 65.3843C288.649 58.4521 303.512 60.8299 312.836 70.2892L319.958 63.2693ZM334.043 33.7357C321.572 40.9148 313.649 52.9582 311.466 65.9508L321.328 67.6077C323.025 57.5036 329.202 48.061 339.032 42.4024L334.043 33.7357ZM360.888 27.6403C351.885 26.9218 342.518 28.8575 334.043 33.7357L339.032 42.4024C345.717 38.5542 353.062 37.0475 360.093 37.6086L360.888 27.6403ZM365.324 33.9031L367.077 27.2787L357.409 24.7213L355.657 31.3458L365.324 33.9031ZM361.837 30.9835L435.106 36.9457L435.917 26.9787L362.648 21.0165L361.837 30.9835ZM430.513 32.1078L434.002 151.893L443.998 151.602L440.509 31.8166L430.513 32.1078ZM438.885 146.749L297.831 150.001L298.062 159.999L439.115 156.747L438.885 146.749ZM302.38 152.689L299.906 147.941L291.038 152.562L293.512 157.311L302.38 152.689Z" fill="url(#paint0_linear_205_21051)"/>
</g>
<defs>
<linearGradient id="paint0_linear_205_21051" x1="266.5" y1="51" x2="325" y2="136.5" gradientUnits="userSpaceOnUse">
<stop stop-color="#FF635E"/>
<stop offset="1" stop-color="white"/>
</linearGradient>
<clipPath id="clip0_205_21051">
<rect width="350" height="190" rx="11" fill="white"/>
</clipPath>
</defs>
</svg>
