<svg width="350" height="100" viewBox="0 0 350 100" fill="none" xmlns="http://www.w3.org/2000/svg">
<g clip-path="url(#clip0_453_13742)">
<rect width="350" height="100" rx="11" fill="#18BB7A"/>
<path d="M175.997 127.249C170.972 107.912 172.879 64.7656 220.706 46.8805C280.49 24.5241 295.212 0.38779 297.003 -40.2493" stroke="url(#paint0_linear_453_13742)" stroke-width="10"/>
<line x1="89.7347" y1="-17.8671" x2="98.0473" y2="1.13326" stroke="url(#paint1_linear_453_13742)" stroke-width="4"/>
<line x1="107.172" y1="17.9459" x2="115.485" y2="36.9463" stroke="url(#paint2_linear_453_13742)" stroke-width="4"/>
<line x1="115.202" y1="-17.4502" x2="107.485" y2="1.79995" stroke="url(#paint3_linear_453_13742)" stroke-width="4"/>
<line x1="99.7825" y1="19.3701" x2="92.066" y2="38.6203" stroke="url(#paint4_linear_453_13742)" stroke-width="4"/>
<line x1="130.668" y1="0.334702" x2="111.516" y2="8.29248" stroke="url(#paint5_linear_453_13742)" stroke-width="4"/>
<line x1="93.5738" y1="15.0842" x2="74.4222" y2="23.042" stroke="url(#paint6_linear_453_13742)" stroke-width="4"/>
<line x1="130.972" y1="22.4609" x2="111.778" y2="14.6066" stroke="url(#paint7_linear_453_13742)" stroke-width="4"/>
<line x1="92.2626" y1="7.77925" x2="73.0682" y2="-0.075005" stroke="url(#paint8_linear_453_13742)" stroke-width="4"/>
</g>
<defs>
<linearGradient id="paint0_linear_453_13742" x1="278.5" y1="-33.5" x2="164" y2="175" gradientUnits="userSpaceOnUse">
<stop stop-color="white"/>
<stop offset="1" stop-color="#18BB7A"/>
</linearGradient>
<linearGradient id="paint1_linear_453_13742" x1="87.4443" y1="-16.865" x2="95.7569" y2="2.13531" gradientUnits="userSpaceOnUse">
<stop stop-color="white"/>
<stop offset="1" stop-color="#40DD9E"/>
</linearGradient>
<linearGradient id="paint2_linear_453_13742" x1="104.882" y1="18.948" x2="113.195" y2="37.9483" gradientUnits="userSpaceOnUse">
<stop stop-color="#40DD9E"/>
<stop offset="1" stop-color="white"/>
</linearGradient>
<linearGradient id="paint3_linear_453_13742" x1="112.881" y1="-18.3804" x2="105.165" y2="0.869759" gradientUnits="userSpaceOnUse">
<stop stop-color="white"/>
<stop offset="1" stop-color="#40DD9E"/>
</linearGradient>
<linearGradient id="paint4_linear_453_13742" x1="97.462" y1="18.4399" x2="89.7455" y2="37.6901" gradientUnits="userSpaceOnUse">
<stop stop-color="#40DD9E"/>
<stop offset="1" stop-color="white"/>
</linearGradient>
<linearGradient id="paint5_linear_453_13742" x1="129.708" y1="-1.97393" x2="110.557" y2="5.98384" gradientUnits="userSpaceOnUse">
<stop stop-color="white"/>
<stop offset="1" stop-color="#40DD9E"/>
</linearGradient>
<linearGradient id="paint6_linear_453_13742" x1="92.6146" y1="12.7756" x2="73.4629" y2="20.7334" gradientUnits="userSpaceOnUse">
<stop stop-color="#40DD9E"/>
<stop offset="1" stop-color="white"/>
</linearGradient>
<linearGradient id="paint7_linear_453_13742" x1="131.919" y1="20.1471" x2="112.724" y2="12.2929" gradientUnits="userSpaceOnUse">
<stop stop-color="white"/>
<stop offset="1" stop-color="#40DD9E"/>
</linearGradient>
<linearGradient id="paint8_linear_453_13742" x1="93.2094" y1="5.46547" x2="74.015" y2="-2.38879" gradientUnits="userSpaceOnUse">
<stop stop-color="#40DD9E"/>
<stop offset="1" stop-color="white"/>
</linearGradient>
<clipPath id="clip0_453_13742">
<rect width="350" height="100" rx="11" fill="white"/>
</clipPath>
</defs>
</svg>
