<svg width="390" height="379" viewBox="0 0 390 379" fill="none" xmlns="http://www.w3.org/2000/svg">
<g clip-path="url(#clip0_567_42509)">
<path d="M140.391 119.736V120.639H129.303V119.736H140.391ZM139.092 117.699V118.574H130.711V114.445H139.01V115.348H131.764V117.699H139.092ZM134.84 121.705C137.452 121.705 139.01 122.498 139.024 123.893C139.01 125.301 137.452 126.08 134.84 126.08C132.215 126.08 130.643 125.301 130.643 123.893C130.643 122.498 132.215 121.705 134.84 121.705ZM134.84 122.539C132.885 122.553 131.723 123.045 131.737 123.893C131.723 124.754 132.885 125.232 134.84 125.232C136.768 125.232 137.944 124.754 137.944 123.893C137.944 123.045 136.768 122.553 134.84 122.539ZM152.418 120.652V121.541H141.289V120.652H146.32V119.367H142.738V116.4H149.902V115.143H142.697V114.268H150.982V117.207H143.805V118.506H151.242V119.367H147.373V120.652H152.418ZM151.051 122.471V125.998H149.971V123.346H142.533V122.471H151.051ZM160.371 117.945V118.82H157.91V120.516C159.045 120.468 160.179 120.386 161.232 120.27L161.314 121.062C158.703 121.418 155.804 121.5 153.521 121.5L153.357 120.625C154.423 120.618 155.62 120.604 156.843 120.557V118.82H154.464V114.746H160.275V115.635H155.545V117.945H160.371ZM163.324 113.967V123.059H162.244V113.967H163.324ZM163.72 124.945V125.848H155.435V122.43H156.502V124.945H163.72ZM174.321 121.596C176.823 121.596 178.327 122.416 178.327 123.838C178.327 125.273 176.823 126.094 174.321 126.107C171.819 126.094 170.288 125.273 170.288 123.838C170.288 122.416 171.819 121.596 174.321 121.596ZM174.321 122.443C172.489 122.457 171.354 122.963 171.368 123.838C171.354 124.713 172.489 125.232 174.321 125.232C176.167 125.232 177.288 124.713 177.288 123.838C177.288 122.963 176.167 122.457 174.321 122.443ZM178.218 113.953V117.016H180.05V117.932H178.218V121.268H177.151V113.953H178.218ZM170.288 114.719V116.578H173.829V114.719H174.895V120.324H169.235V114.719H170.288ZM170.288 119.449H173.829V117.426H170.288V119.449ZM190.791 113.953V121.158H189.711V119.244H186.868V120.283H181.289V114.883H186.868V115.936H189.711V113.953H190.791ZM182.356 115.758V119.408H185.815V115.758H182.356ZM186.758 121.514C189.287 121.514 190.832 122.348 190.832 123.811C190.832 125.26 189.287 126.08 186.758 126.08C184.229 126.08 182.684 125.26 182.684 123.811C182.684 122.348 184.229 121.514 186.758 121.514ZM186.758 122.348C184.899 122.361 183.737 122.895 183.75 123.811C183.737 124.686 184.899 125.232 186.758 125.232C188.618 125.232 189.766 124.686 189.766 123.811C189.766 122.895 188.618 122.361 186.758 122.348ZM186.868 118.342H189.711V116.824H186.868V118.342ZM203.83 120.652V121.541H192.701V120.652H197.732V119.367H194.15V116.4H201.314V115.143H194.109V114.268H202.395V117.207H195.217V118.506H202.654V119.367H198.785V120.652H203.83ZM202.463 122.471V125.998H201.383V123.346H193.945V122.471H202.463ZM214.736 113.953V126.135H213.656V113.953H214.736ZM208.269 114.896C210.074 114.91 211.373 116.551 211.373 119.135C211.373 121.719 210.074 123.359 208.269 123.359C206.451 123.359 205.166 121.719 205.166 119.135C205.166 116.551 206.451 114.91 208.269 114.896ZM208.269 115.854C207.052 115.867 206.205 117.152 206.205 119.135C206.205 121.117 207.052 122.402 208.269 122.402C209.486 122.402 210.334 121.117 210.334 119.135C210.334 117.152 209.486 115.867 208.269 115.854ZM222.548 121.09V122.607H224.762V121.09H225.761V125.943H221.536V121.09H222.548ZM222.548 125.096H224.762V123.428H222.548V125.096ZM229.233 122.047C229.22 123.332 229.985 124.672 231.475 125.219L230.915 126.039C229.794 125.588 229.055 124.733 228.686 123.715C228.297 124.713 227.558 125.574 226.485 126.039L225.925 125.219C227.387 124.617 228.167 123.277 228.167 122.047V121.008H229.233V122.047ZM223.477 114.5C225.104 114.5 226.348 115.423 226.581 116.824H229.124V113.953H230.204V120.393H229.124V117.713H226.595C226.376 119.148 225.125 120.092 223.477 120.092C221.632 120.092 220.319 118.957 220.319 117.289C220.319 115.635 221.632 114.5 223.477 114.5ZM223.477 115.402C222.233 115.402 221.345 116.182 221.345 117.289C221.345 118.41 222.233 119.203 223.477 119.203C224.708 119.203 225.583 118.41 225.583 117.289C225.583 116.182 224.708 115.402 223.477 115.402ZM235.395 114.896C237.049 114.91 238.239 116.325 238.416 118.602H241.137V113.953H242.204V126.135H241.137V119.49H238.43C238.3 121.869 237.09 123.359 235.395 123.359C233.604 123.359 232.346 121.719 232.346 119.135C232.346 116.551 233.604 114.91 235.395 114.896ZM235.395 115.854C234.192 115.867 233.371 117.152 233.371 119.135C233.371 121.117 234.192 122.402 235.395 122.402C236.584 122.402 237.418 121.117 237.418 119.135C237.418 117.152 236.584 115.867 235.395 115.854ZM255.256 123.646V124.549H244.127V123.646H246.889V120.365C245.85 119.825 245.221 118.95 245.221 117.85C245.221 115.963 247.066 114.732 249.664 114.719C252.262 114.732 254.107 115.963 254.107 117.85C254.107 118.93 253.499 119.798 252.494 120.338V123.646H255.256ZM249.664 115.607C247.668 115.594 246.26 116.496 246.26 117.85C246.26 119.203 247.668 120.119 249.664 120.119C251.646 120.119 253.068 119.203 253.068 117.85C253.068 116.496 251.646 115.594 249.664 115.607ZM247.941 123.646H251.414V120.748C250.888 120.892 250.3 120.967 249.664 120.967C249.042 120.967 248.461 120.898 247.941 120.762V123.646ZM257.412 125.082C256.933 125.082 256.523 124.686 256.537 124.193C256.523 123.715 256.933 123.318 257.412 123.318C257.89 123.318 258.287 123.715 258.287 124.193C258.287 124.686 257.89 125.082 257.412 125.082ZM131.867 137.564C131.867 139.068 133.097 140.463 134.874 141.023L134.369 141.857C132.981 141.413 131.901 140.483 131.361 139.287C130.841 140.627 129.741 141.68 128.298 142.186L127.779 141.324C129.556 140.736 130.814 139.232 130.814 137.564V137.277H128.066V136.402H130.814V134.912H131.894V136.402H134.615V137.277H131.867V137.564ZM137.8 134.953V143.389H136.72V139.314H134.246V138.412H136.72V134.953H137.8ZM134.423 142.814C134.41 144.537 136.392 145.85 138.566 146.205L138.115 147.053C136.283 146.725 134.587 145.774 133.863 144.346C133.131 145.761 131.436 146.725 129.597 147.053L129.201 146.205C131.32 145.836 133.316 144.496 133.329 142.814V142.555H134.423V142.814ZM148.743 142.596C151.245 142.596 152.749 143.416 152.749 144.838C152.749 146.273 151.245 147.094 148.743 147.107C146.241 147.094 144.71 146.273 144.71 144.838C144.71 143.416 146.241 142.596 148.743 142.596ZM148.743 143.443C146.911 143.457 145.776 143.963 145.79 144.838C145.776 145.713 146.911 146.232 148.743 146.232C150.588 146.232 151.71 145.713 151.71 144.838C151.71 143.963 150.588 143.457 148.743 143.443ZM152.639 134.953V138.016H154.471V138.932H152.639V142.268H151.573V134.953H152.639ZM144.71 135.719V137.578H148.251V135.719H149.317V141.324H143.657V135.719H144.71ZM144.71 140.449H148.251V138.426H144.71V140.449ZM165.213 134.953V142.158H164.133V140.244H161.289V141.283H155.711V135.883H161.289V136.936H164.133V134.953H165.213ZM156.778 136.758V140.408H160.237V136.758H156.778ZM161.18 142.514C163.709 142.514 165.254 143.348 165.254 144.811C165.254 146.26 163.709 147.08 161.18 147.08C158.651 147.08 157.106 146.26 157.106 144.811C157.106 143.348 158.651 142.514 161.18 142.514ZM161.18 143.348C159.321 143.361 158.158 143.895 158.172 144.811C158.158 145.686 159.321 146.232 161.18 146.232C163.039 146.232 164.188 145.686 164.188 144.811C164.188 143.895 163.039 143.361 161.18 143.348ZM161.289 139.342H164.133V137.824H161.289V139.342ZM178.252 141.652V142.541H167.123V141.652H172.154V140.367H168.572V137.4H175.736V136.143H168.531V135.268H176.816V138.207H169.638V139.506H177.076V140.367H173.207V141.652H178.252ZM176.885 143.471V146.998H175.804V144.346H168.367V143.471H176.885ZM184.673 135.172C187.38 135.172 188.966 135.91 188.966 137.264C188.966 138.645 187.38 139.383 184.673 139.396C181.966 139.383 180.367 138.645 180.367 137.264C180.367 135.91 181.966 135.172 184.673 135.172ZM184.673 135.979C182.65 135.979 181.474 136.471 181.488 137.264C181.474 138.111 182.65 138.576 184.673 138.576C186.683 138.576 187.872 138.111 187.872 137.264C187.872 136.471 186.683 135.979 184.673 135.979ZM190.21 140.217V141.092H179.136V140.217H190.21ZM188.788 142.145V144.865H181.57V146.123H189.158V146.971H180.503V144.072H187.736V142.965H180.476V142.145H188.788ZM204.051 134.967V137.756H205.897V138.658H204.051V141.83H202.985V134.967H204.051ZM204.051 142.5V146.943H196.354V142.5H204.051ZM197.407 143.348V146.068H203.012V143.348H197.407ZM196.217 135.582V139.998C197.947 139.991 199.731 139.854 201.7 139.451L201.837 140.354C199.772 140.764 197.94 140.9 196.108 140.9H195.137V135.582H196.217ZM212.715 136.279C212.715 136.97 212.654 137.646 212.524 138.303H215.545V134.939H216.612V147.107H215.545V142.432H212.113V141.543H215.545V139.178H212.305C211.601 141.434 209.994 143.416 207.123 144.811L206.563 143.936C209.803 142.37 211.409 140.025 211.635 137.154H207.096V136.279H212.715ZM221.092 135.158V136.32H227.107V135.158H228.174V139.15H224.592V140.354H229.623V141.229H218.549V140.354H223.539V139.15H220.025V135.158H221.092ZM221.092 138.316H227.107V137.141H221.092V138.316ZM228.201 142.24V144.934H220.982V146.123H228.57V146.971H219.916V144.141H227.148V143.061H219.888V142.24H228.201ZM240.173 134.953V139.971H242.019V140.873H240.173V147.107H239.093V134.953H240.173ZM234.24 136.279C234.226 139.178 233.57 142.021 231.369 144.359L230.507 143.744C232.346 141.864 233.084 139.602 233.228 137.182H230.89V136.279H234.24ZM237.576 136.279C237.562 139.164 237.138 142.514 234.869 145.166L233.994 144.564C235.894 142.418 236.468 139.718 236.564 137.182H234.622V136.279H237.576ZM253.677 144.646V145.549H242.548V144.646H245.31V141.365C244.271 140.825 243.642 139.95 243.642 138.85C243.642 136.963 245.487 135.732 248.085 135.719C250.683 135.732 252.528 136.963 252.528 138.85C252.528 139.93 251.92 140.798 250.915 141.338V144.646H253.677ZM248.085 136.607C246.089 136.594 244.681 137.496 244.681 138.85C244.681 140.203 246.089 141.119 248.085 141.119C250.067 141.119 251.489 140.203 251.489 138.85C251.489 137.496 250.067 136.594 248.085 136.607ZM246.362 144.646H249.835V141.748C249.309 141.892 248.721 141.967 248.085 141.967C247.463 141.967 246.882 141.898 246.362 141.762V144.646ZM256.489 143.143C256.503 141.311 257.063 140.75 258.006 140.176C258.567 139.834 259.004 139.287 259.004 138.521C259.004 137.592 258.28 137.004 257.378 137.004C256.598 137.004 255.819 137.469 255.737 138.59H254.493C254.561 136.936 255.819 135.965 257.378 135.965C259.087 135.965 260.208 137.072 260.208 138.576C260.208 139.643 259.702 140.395 258.854 140.914C258.006 141.434 257.692 141.953 257.665 143.143V143.211H256.489V143.143ZM257.118 146.082C256.639 146.082 256.229 145.686 256.243 145.193C256.229 144.715 256.639 144.318 257.118 144.318C257.596 144.318 257.993 144.715 257.993 145.193C257.993 145.686 257.596 146.082 257.118 146.082Z" fill="#787878"/>
<path fill-rule="evenodd" clip-rule="evenodd" d="M62 253C62 254.054 61.9852 255.104 61.956 256.15C82.747 261.742 100.627 274.437 112.834 291.473C132.711 283.543 155.83 279 180.5 279C212.275 279 241.477 286.537 264.493 299.14C275.69 291.416 288.666 287 302.5 287C311.744 287 320.605 288.972 328.807 292.584C334.208 248.133 366.039 214 404.5 214C446.75 214 481 255.19 481 306C481 356.81 446.75 398 404.5 398C395.256 398 386.395 396.028 378.193 392.416C372.792 436.867 340.961 471 302.5 471C283.415 471 265.962 462.595 252.561 448.695C231.731 457.753 207.011 463 180.5 463C138.261 463 100.57 449.682 75.912 428.85C64.3516 434.085 51.5162 437 38 437C-12.8102 437 -54 395.81 -54 345C-54 340.731 -53.7092 336.529 -53.1463 332.414C-75.7935 316.44 -91 286.856 -91 253C-91 202.19 -56.7498 161 -14.5 161C27.7498 161 62 202.19 62 253Z" fill="url(#paint0_linear_567_42509)"/>
<path fill-rule="evenodd" clip-rule="evenodd" d="M88 448C103.742 448 118.252 442.729 129.862 433.855C141.698 454.834 164.195 469 190 469C228.108 469 259 438.108 259 400C259 361.892 228.108 331 190 331C174.258 331 159.748 336.271 148.138 345.145C136.302 324.166 113.805 310 88 310C49.8924 310 19 340.892 19 379C19 417.108 49.8924 448 88 448ZM392 483C445.019 483 488 452.108 488 414C488 375.892 445.019 345 392 345C338.981 345 296 375.892 296 414C296 452.108 338.981 483 392 483Z" fill="url(#paint1_linear_567_42509)"/>
</g>
<defs>
<linearGradient id="paint0_linear_567_42509" x1="195" y1="267" x2="195" y2="499" gradientUnits="userSpaceOnUse">
<stop stop-color="#18BB7A" stop-opacity="0.1"/>
<stop offset="1" stop-color="#18BB7A"/>
</linearGradient>
<linearGradient id="paint1_linear_567_42509" x1="139" y1="364.368" x2="139" y2="483.361" gradientUnits="userSpaceOnUse">
<stop stop-color="#18BB7A" stop-opacity="0.1"/>
<stop offset="1" stop-color="#18BB7A"/>
</linearGradient>
<clipPath id="clip0_567_42509">
<rect width="390" height="379" fill="white"/>
</clipPath>
</defs>
</svg>
