<svg width="390" height="379" viewBox="0 0 390 379" fill="none" xmlns="http://www.w3.org/2000/svg">
<g clip-path="url(#clip0_599_8002)">
<path d="M146.891 120.639H135.803V119.736H146.891V120.639ZM145.592 118.574H137.211V114.445H145.51V115.348H138.264V117.699H145.592V118.574ZM141.34 121.705C142.206 121.705 142.951 121.792 143.575 121.965C144.204 122.133 144.685 122.382 145.018 122.71C145.35 123.038 145.519 123.432 145.524 123.893C145.519 124.357 145.35 124.754 145.018 125.082C144.685 125.41 144.207 125.659 143.582 125.827C142.958 125.996 142.21 126.08 141.34 126.08C140.465 126.08 139.713 125.996 139.084 125.827C138.455 125.659 137.974 125.41 137.642 125.082C137.309 124.754 137.143 124.357 137.143 123.893C137.143 123.432 137.309 123.038 137.642 122.71C137.974 122.382 138.455 122.133 139.084 121.965C139.713 121.792 140.465 121.705 141.34 121.705ZM141.34 122.539C140.688 122.544 140.13 122.601 139.665 122.71C139.2 122.815 138.845 122.97 138.599 123.175C138.353 123.375 138.232 123.615 138.237 123.893C138.232 124.321 138.501 124.651 139.043 124.884C139.59 125.116 140.356 125.232 141.34 125.232C142.311 125.232 143.07 125.116 143.616 124.884C144.168 124.651 144.444 124.321 144.444 123.893C144.444 123.615 144.318 123.375 144.068 123.175C143.821 122.97 143.466 122.815 143.001 122.71C142.536 122.601 141.983 122.544 141.34 122.539ZM158.918 121.541H147.789V120.652H152.82V119.367H149.238V116.4H156.402V115.143H149.197V114.268H157.482V117.207H150.304V118.506H157.742V119.367H153.873V120.652H158.918V121.541ZM157.551 125.998H156.471V123.346H149.033V122.471H157.551V125.998ZM166.871 118.82H164.41V120.522C165.631 120.463 166.738 120.379 167.732 120.27L167.814 121.062C165.672 121.354 163.074 121.5 160.021 121.5L159.857 120.625C161.219 120.616 162.382 120.595 163.343 120.563V118.82H160.964V114.746H166.775V115.635H162.044V117.945H166.871V118.82ZM169.824 123.059H168.744V113.967H169.824V123.059ZM170.22 125.848H161.935V122.43H163.001V124.945H170.22V125.848ZM180.712 121.637C181.582 121.637 182.336 121.726 182.974 121.903C183.617 122.076 184.111 122.332 184.458 122.669C184.804 123.002 184.977 123.4 184.977 123.865C184.977 124.326 184.804 124.722 184.458 125.055C184.111 125.387 183.617 125.64 182.974 125.813C182.332 125.991 181.577 126.08 180.712 126.08C179.846 126.08 179.094 125.991 178.456 125.813C177.818 125.64 177.325 125.387 176.979 125.055C176.633 124.722 176.46 124.326 176.46 123.865C176.46 123.4 176.633 123.002 176.979 122.669C177.325 122.332 177.818 122.076 178.456 121.903C179.094 121.726 179.846 121.637 180.712 121.637ZM180.712 122.457C180.069 122.462 179.506 122.521 179.023 122.635C178.54 122.749 178.169 122.913 177.909 123.127C177.649 123.337 177.521 123.583 177.526 123.865C177.521 124.143 177.649 124.387 177.909 124.597C178.169 124.802 178.54 124.959 179.023 125.068C179.506 125.178 180.069 125.232 180.712 125.232C181.354 125.232 181.915 125.178 182.393 125.068C182.876 124.959 183.248 124.802 183.507 124.597C183.772 124.387 183.906 124.143 183.911 123.865C183.906 123.583 183.772 123.337 183.507 123.127C183.248 122.913 182.876 122.749 182.393 122.635C181.915 122.521 181.354 122.462 180.712 122.457ZM184.881 115.607C184.881 116.264 184.861 116.826 184.82 117.296C184.783 117.761 184.69 118.273 184.54 118.834L183.487 118.711C183.633 118.15 183.724 117.649 183.76 117.207C183.797 116.765 183.815 116.232 183.815 115.607V115.457H176.542V114.582H184.881V115.607ZM186.29 120.502H175.229V119.627H179.809V117.275H180.862V119.627H186.29V120.502ZM191.563 117.686C191.563 118.355 191.711 119.023 192.007 119.688C192.303 120.349 192.702 120.939 193.203 121.459C193.709 121.974 194.261 122.361 194.858 122.621L194.256 123.469C193.541 123.141 192.896 122.646 192.321 121.985C191.747 121.32 191.319 120.57 191.036 119.736C190.754 120.63 190.325 121.438 189.751 122.163C189.182 122.883 188.55 123.419 187.858 123.77L187.215 122.922C187.789 122.644 188.325 122.225 188.821 121.664C189.323 121.104 189.724 120.472 190.025 119.771C190.325 119.064 190.478 118.369 190.483 117.686V116.1H187.612V115.211H194.461V116.1H191.563V117.686ZM197.237 126.107H196.156V113.953H197.237V126.107ZM208.621 118.902H210.59V119.805H208.621V126.107H207.554V113.953H208.621V118.902ZM205.476 115.266C205.476 117.075 205.023 118.715 204.116 120.188C203.209 121.655 201.803 122.858 199.898 123.797L199.297 122.949C200.86 122.17 202.07 121.208 202.927 120.064C203.783 118.916 204.273 117.617 204.396 116.168H199.857V115.266H205.476ZM217.048 122.607H219.263V121.09H220.261V125.943H216.036V121.09H217.048V122.607ZM219.263 125.096V123.428H217.048V125.096H219.263ZM223.733 122.047C223.729 122.484 223.811 122.913 223.979 123.332C224.153 123.747 224.408 124.12 224.745 124.453C225.087 124.786 225.497 125.041 225.976 125.219L225.415 126.039C224.873 125.82 224.412 125.51 224.034 125.109C223.66 124.708 223.378 124.246 223.187 123.722C222.986 124.237 222.699 124.695 222.325 125.096C221.951 125.501 221.505 125.816 220.985 126.039L220.425 125.219C220.899 125.023 221.304 124.756 221.642 124.419C221.979 124.082 222.234 123.708 222.407 123.298C222.58 122.883 222.667 122.466 222.667 122.047V121.008H223.733V122.047ZM217.978 114.5C218.515 114.5 219.005 114.596 219.447 114.787C219.889 114.979 220.252 115.252 220.534 115.607C220.821 115.958 221.004 116.364 221.081 116.824H223.624V113.953H224.704V120.393H223.624V117.713H221.088C221.02 118.187 220.842 118.604 220.555 118.964C220.272 119.324 219.908 119.602 219.461 119.798C219.014 119.994 218.52 120.092 217.978 120.092C217.367 120.092 216.822 119.976 216.344 119.743C215.865 119.506 215.492 119.176 215.223 118.752C214.954 118.324 214.819 117.836 214.819 117.289C214.819 116.747 214.954 116.264 215.223 115.84C215.492 115.416 215.865 115.088 216.344 114.855C216.822 114.618 217.367 114.5 217.978 114.5ZM217.978 115.402C217.567 115.402 217.201 115.482 216.877 115.642C216.553 115.801 216.3 116.024 216.118 116.312C215.936 116.599 215.845 116.924 215.845 117.289C215.845 117.658 215.936 117.989 216.118 118.28C216.3 118.567 216.553 118.793 216.877 118.957C217.201 119.121 217.567 119.203 217.978 119.203C218.383 119.203 218.745 119.121 219.064 118.957C219.383 118.793 219.632 118.567 219.81 118.28C219.992 117.989 220.083 117.658 220.083 117.289C220.083 116.924 219.992 116.599 219.81 116.312C219.632 116.024 219.383 115.801 219.064 115.642C218.745 115.482 218.383 115.402 217.978 115.402ZM229.895 114.896C230.442 114.901 230.932 115.054 231.365 115.354C231.802 115.655 232.156 116.084 232.424 116.64C232.693 117.196 232.855 117.85 232.91 118.602H235.637V113.953H236.704V126.135H235.637V119.49H232.923C232.882 120.274 232.73 120.958 232.465 121.541C232.201 122.124 231.846 122.573 231.399 122.888C230.957 123.202 230.456 123.359 229.895 123.359C229.303 123.359 228.774 123.186 228.309 122.84C227.849 122.493 227.489 122.001 227.229 121.363C226.974 120.725 226.846 119.982 226.846 119.135C226.846 118.287 226.974 117.544 227.229 116.906C227.489 116.268 227.849 115.776 228.309 115.43C228.769 115.079 229.298 114.901 229.895 114.896ZM229.895 115.854C229.499 115.858 229.145 115.997 228.836 116.271C228.53 116.539 228.293 116.922 228.125 117.419C227.956 117.911 227.872 118.483 227.872 119.135C227.872 119.786 227.956 120.361 228.125 120.857C228.293 121.35 228.53 121.73 228.836 121.999C229.145 122.268 229.499 122.402 229.895 122.402C230.287 122.402 230.636 122.268 230.941 121.999C231.251 121.73 231.49 121.35 231.659 120.857C231.832 120.361 231.919 119.786 231.919 119.135C231.919 118.483 231.832 117.911 231.659 117.419C231.49 116.922 231.253 116.539 230.948 116.271C230.643 115.997 230.292 115.858 229.895 115.854ZM249.756 124.549H238.627V123.646H241.389V120.365C240.86 120.092 240.45 119.741 240.158 119.312C239.867 118.88 239.721 118.392 239.721 117.85C239.721 117.23 239.91 116.685 240.288 116.216C240.667 115.742 241.191 115.375 241.861 115.115C242.535 114.855 243.303 114.723 244.164 114.719C245.026 114.723 245.791 114.855 246.461 115.115C247.136 115.375 247.662 115.742 248.04 116.216C248.418 116.685 248.608 117.23 248.608 117.85C248.608 118.383 248.466 118.864 248.184 119.292C247.901 119.716 247.505 120.064 246.994 120.338V123.646H249.756V124.549ZM244.164 115.607C243.503 115.603 242.916 115.694 242.401 115.881C241.886 116.068 241.482 116.332 241.191 116.674C240.904 117.011 240.76 117.403 240.76 117.85C240.76 118.296 240.904 118.693 241.191 119.039C241.482 119.381 241.886 119.647 242.401 119.839C242.916 120.026 243.503 120.119 244.164 120.119C244.821 120.119 245.406 120.023 245.921 119.832C246.436 119.641 246.839 119.374 247.131 119.032C247.423 118.69 247.569 118.296 247.569 117.85C247.569 117.403 247.423 117.011 247.131 116.674C246.839 116.332 246.436 116.068 245.921 115.881C245.406 115.694 244.821 115.603 244.164 115.607ZM245.914 123.646V120.755C245.372 120.896 244.789 120.967 244.164 120.967C243.535 120.967 242.961 120.898 242.442 120.762V123.646H245.914ZM251.912 125.082C251.752 125.082 251.604 125.043 251.468 124.966C251.335 124.884 251.228 124.774 251.146 124.638C251.069 124.501 251.032 124.353 251.037 124.193C251.032 124.038 251.069 123.895 251.146 123.763C251.228 123.626 251.335 123.519 251.468 123.441C251.604 123.359 251.752 123.318 251.912 123.318C252.067 123.318 252.21 123.359 252.343 123.441C252.479 123.519 252.586 123.626 252.664 123.763C252.746 123.895 252.787 124.038 252.787 124.193C252.787 124.353 252.746 124.501 252.664 124.638C252.586 124.774 252.479 124.884 252.343 124.966C252.21 125.043 252.067 125.082 251.912 125.082ZM133.21 139.766H135.247V140.668H133.21V147.135H132.143V134.953H133.21V139.766ZM130.01 137.031H125.403V143.184C126.538 143.184 127.529 143.152 128.377 143.088C129.224 143.024 130.088 142.91 130.967 142.746L131.104 143.676C130.206 143.84 129.324 143.949 128.459 144.004C127.593 144.059 126.538 144.086 125.294 144.086H124.337V136.143H130.01V137.031ZM141.34 135.227C142.22 135.227 142.981 135.318 143.623 135.5C144.27 135.682 144.767 135.947 145.113 136.293C145.46 136.639 145.633 137.054 145.633 137.537C145.633 138.011 145.46 138.419 145.113 138.761C144.767 139.098 144.27 139.358 143.623 139.54C142.981 139.718 142.22 139.807 141.34 139.807C140.46 139.807 139.697 139.718 139.05 139.54C138.403 139.358 137.904 139.098 137.553 138.761C137.207 138.419 137.033 138.011 137.033 137.537C137.033 137.054 137.207 136.639 137.553 136.293C137.904 135.947 138.403 135.682 139.05 135.5C139.697 135.318 140.46 135.227 141.34 135.227ZM141.34 136.088C140.688 136.088 140.121 136.147 139.638 136.266C139.155 136.38 138.783 136.546 138.524 136.765C138.264 136.983 138.136 137.241 138.141 137.537C138.136 137.829 138.262 138.082 138.517 138.296C138.777 138.506 139.148 138.667 139.631 138.781C140.114 138.895 140.684 138.954 141.34 138.959C141.987 138.954 142.55 138.895 143.029 138.781C143.512 138.667 143.883 138.506 144.143 138.296C144.407 138.082 144.539 137.829 144.539 137.537C144.539 137.241 144.407 136.983 144.143 136.765C143.883 136.546 143.512 136.38 143.029 136.266C142.545 136.147 141.983 136.088 141.34 136.088ZM145.524 146.943H137.156V142.951H145.524V146.943ZM138.223 146.068H144.471V143.812H138.223V146.068ZM146.877 141.748H135.803V140.859H146.877V141.748ZM158.221 147.107H157.181V134.953H158.221V147.107ZM155.773 146.492H154.748V140.586H153.182C153.146 141.37 153.016 142.051 152.793 142.63C152.569 143.204 152.266 143.648 151.884 143.963C151.501 144.273 151.061 144.428 150.564 144.428C150.04 144.428 149.58 144.257 149.183 143.915C148.791 143.569 148.488 143.076 148.274 142.438C148.06 141.8 147.953 141.055 147.953 140.203C147.953 139.351 148.06 138.606 148.274 137.968C148.488 137.33 148.791 136.84 149.183 136.498C149.58 136.152 150.04 135.979 150.564 135.979C151.052 135.979 151.485 136.129 151.863 136.43C152.241 136.73 152.542 137.161 152.765 137.722C152.993 138.282 153.13 138.941 153.176 139.697H154.748V135.213H155.773V146.492ZM150.564 136.99C150.236 136.99 149.951 137.12 149.71 137.38C149.468 137.64 149.281 138.013 149.149 138.501C149.022 138.984 148.96 139.551 148.965 140.203C148.96 140.855 149.022 141.422 149.149 141.905C149.281 142.388 149.468 142.76 149.71 143.02C149.956 143.279 150.241 143.407 150.564 143.402C150.888 143.407 151.17 143.279 151.412 143.02C151.658 142.76 151.847 142.388 151.979 141.905C152.111 141.422 152.178 140.855 152.178 140.203C152.178 139.547 152.111 138.977 151.979 138.494C151.847 138.011 151.66 137.64 151.419 137.38C151.177 137.12 150.892 136.99 150.564 136.99ZM172.622 139.766H174.659V140.668H172.622V147.135H171.556V134.953H172.622V139.766ZM169.423 137.031H164.815V143.184C165.95 143.184 166.941 143.152 167.789 143.088C168.637 143.024 169.5 142.91 170.38 142.746L170.517 143.676C169.619 143.84 168.737 143.949 167.871 144.004C167.005 144.059 165.95 144.086 164.706 144.086H163.749V136.143H169.423V137.031ZM179.536 138.221C179.531 138.941 179.677 139.656 179.973 140.367C180.269 141.074 180.671 141.702 181.176 142.254C181.682 142.805 182.234 143.215 182.831 143.484L182.174 144.332C181.482 143.99 180.853 143.482 180.288 142.808C179.727 142.129 179.303 141.358 179.016 140.497C178.734 141.413 178.31 142.233 177.745 142.958C177.18 143.678 176.542 144.218 175.831 144.578L175.147 143.676C175.744 143.398 176.296 142.976 176.801 142.411C177.307 141.841 177.711 141.19 178.011 140.456C178.312 139.718 178.465 138.973 178.469 138.221V136.006H179.536V138.221ZM185.237 147.135H184.157V134.953H185.237V147.135ZM200.117 138.645H201.935V139.547H200.117V143.115H199.037V134.967H200.117V138.645ZM190.574 141.871C191.978 141.871 193.076 141.857 193.869 141.83V140.948C193.4 140.907 192.989 140.809 192.638 140.654C192.288 140.495 192.016 140.287 191.825 140.032C191.638 139.777 191.545 139.483 191.545 139.15C191.545 138.786 191.661 138.469 191.893 138.2C192.13 137.931 192.463 137.724 192.891 137.578C193.324 137.432 193.823 137.359 194.388 137.359C194.958 137.359 195.457 137.432 195.886 137.578C196.318 137.724 196.651 137.931 196.884 138.2C197.121 138.469 197.241 138.786 197.246 139.15C197.241 139.647 197.032 140.055 196.617 140.374C196.207 140.688 195.646 140.878 194.935 140.941V141.789C196.234 141.725 197.351 141.625 198.285 141.488L198.381 142.268C197.219 142.473 196.022 142.605 194.792 142.664C193.566 142.719 192.201 142.746 190.697 142.746L190.574 141.871ZM200.117 147.107H199.037V144.578H192.064V143.717H200.117V147.107ZM197.916 136.895H190.875V136.074H193.869V134.857H194.935V136.074H197.916V136.895ZM194.388 138.125C193.828 138.12 193.384 138.209 193.055 138.392C192.732 138.574 192.57 138.827 192.57 139.15C192.57 139.36 192.643 139.545 192.789 139.704C192.939 139.864 193.151 139.989 193.425 140.08C193.698 140.167 194.019 140.208 194.388 140.203C194.758 140.208 195.079 140.167 195.352 140.08C195.63 139.989 195.845 139.864 195.995 139.704C196.145 139.545 196.221 139.36 196.221 139.15C196.221 138.831 196.054 138.578 195.721 138.392C195.393 138.205 194.949 138.116 194.388 138.125ZM212.663 143.854H211.597V134.967H212.663V143.854ZM213.046 146.848H204.816V142.951H205.882V145.945H213.046V146.848ZM206.101 135.814C206.703 135.814 207.245 135.942 207.728 136.197C208.216 136.448 208.596 136.801 208.87 137.257C209.148 137.708 209.287 138.221 209.287 138.795C209.287 139.378 209.148 139.898 208.87 140.354C208.596 140.805 208.216 141.158 207.728 141.413C207.245 141.664 206.703 141.789 206.101 141.789C205.499 141.789 204.955 141.664 204.467 141.413C203.984 141.158 203.604 140.805 203.326 140.354C203.052 139.898 202.915 139.378 202.915 138.795C202.915 138.221 203.052 137.708 203.326 137.257C203.604 136.801 203.984 136.448 204.467 136.197C204.955 135.942 205.499 135.814 206.101 135.814ZM206.101 136.758C205.695 136.758 205.329 136.844 205 137.018C204.677 137.191 204.422 137.432 204.235 137.742C204.052 138.052 203.964 138.403 203.968 138.795C203.964 139.191 204.052 139.547 204.235 139.861C204.422 140.171 204.677 140.413 205 140.586C205.329 140.759 205.695 140.846 206.101 140.846C206.497 140.846 206.857 140.759 207.181 140.586C207.509 140.413 207.767 140.171 207.954 139.861C208.14 139.547 208.234 139.191 208.234 138.795C208.234 138.408 208.14 138.059 207.954 137.749C207.767 137.439 207.509 137.198 207.181 137.024C206.857 136.847 206.497 136.758 206.101 136.758ZM220.698 137.934H214.601V137.059H217.13V135.322H218.196V137.059H220.698V137.934ZM217.649 138.754C218.155 138.754 218.606 138.872 219.003 139.109C219.404 139.342 219.716 139.668 219.939 140.087C220.167 140.506 220.284 140.982 220.288 141.516C220.284 142.053 220.167 142.534 219.939 142.958C219.716 143.377 219.404 143.708 219.003 143.949C218.606 144.186 218.155 144.305 217.649 144.305C217.148 144.305 216.699 144.186 216.303 143.949C215.906 143.708 215.596 143.375 215.373 142.951C215.15 142.527 215.038 142.049 215.038 141.516C215.038 140.987 215.15 140.513 215.373 140.094C215.596 139.67 215.906 139.342 216.303 139.109C216.699 138.872 217.148 138.754 217.649 138.754ZM217.649 139.656C217.335 139.661 217.05 139.745 216.795 139.909C216.544 140.069 216.348 140.29 216.207 140.572C216.066 140.85 215.995 141.165 215.995 141.516C215.995 141.871 216.066 142.19 216.207 142.473C216.353 142.755 216.551 142.976 216.802 143.136C217.052 143.291 217.335 143.366 217.649 143.361C217.968 143.366 218.256 143.291 218.511 143.136C218.766 142.976 218.966 142.755 219.112 142.473C219.258 142.19 219.331 141.871 219.331 141.516C219.331 141.165 219.258 140.85 219.112 140.572C218.966 140.29 218.766 140.069 218.511 139.909C218.256 139.745 217.968 139.661 217.649 139.656ZM224.978 147.107H223.952V140.969H222.339V146.506H221.327V135.254H222.339V140.08H223.952V134.953H224.978V147.107ZM232.766 136.676C232.762 137.195 232.964 137.692 233.375 138.166C233.785 138.635 234.32 139.032 234.981 139.355C235.642 139.679 236.33 139.893 237.046 139.998L236.649 140.846C236.006 140.736 235.387 140.554 234.79 140.299C234.197 140.044 233.671 139.725 233.211 139.342C232.75 138.954 232.402 138.524 232.165 138.05C231.928 138.524 231.579 138.952 231.119 139.335C230.658 139.718 230.132 140.039 229.54 140.299C228.952 140.554 228.341 140.736 227.708 140.846L227.284 139.998C227.995 139.893 228.681 139.679 229.341 139.355C230.002 139.032 230.538 138.635 230.948 138.166C231.358 137.692 231.563 137.195 231.563 136.676V136.594H227.667V135.719H236.649V136.594H232.766V136.676ZM237.702 142.773H232.671V147.107H231.618V142.773H226.628V141.885H237.702V142.773ZM242.237 138.412C242.237 139.059 242.339 139.706 242.544 140.354C242.749 141.001 243.043 141.591 243.426 142.124C243.813 142.657 244.269 143.079 244.793 143.389L244.178 144.223C243.608 143.876 243.114 143.4 242.695 142.794C242.28 142.183 241.961 141.497 241.738 140.736C241.51 141.557 241.175 142.295 240.733 142.951C240.291 143.607 239.771 144.118 239.174 144.482L238.49 143.676C239.037 143.357 239.516 142.922 239.926 142.37C240.336 141.814 240.651 141.197 240.869 140.518C241.088 139.834 241.197 139.146 241.197 138.453V136.102H242.237V138.412ZM249.045 147.107H248.006V134.953H249.045V147.107ZM246.529 146.492H245.518V140.23H243.453V139.314H245.518V135.213H246.529V146.492ZM261.756 145.549H250.627V144.646H253.388V141.365C252.86 141.092 252.45 140.741 252.158 140.312C251.866 139.88 251.721 139.392 251.721 138.85C251.721 138.23 251.91 137.685 252.288 137.216C252.666 136.742 253.19 136.375 253.86 136.115C254.535 135.855 255.303 135.723 256.164 135.719C257.025 135.723 257.791 135.855 258.461 136.115C259.135 136.375 259.662 136.742 260.04 137.216C260.418 137.685 260.607 138.23 260.607 138.85C260.607 139.383 260.466 139.864 260.183 140.292C259.901 140.716 259.504 141.064 258.994 141.338V144.646H261.756V145.549ZM256.164 136.607C255.503 136.603 254.915 136.694 254.4 136.881C253.885 137.068 253.482 137.332 253.19 137.674C252.903 138.011 252.76 138.403 252.76 138.85C252.76 139.296 252.903 139.693 253.19 140.039C253.482 140.381 253.885 140.647 254.4 140.839C254.915 141.026 255.503 141.119 256.164 141.119C256.82 141.119 257.406 141.023 257.921 140.832C258.436 140.641 258.839 140.374 259.131 140.032C259.422 139.69 259.568 139.296 259.568 138.85C259.568 138.403 259.422 138.011 259.131 137.674C258.839 137.332 258.436 137.068 257.921 136.881C257.406 136.694 256.82 136.603 256.164 136.607ZM257.914 144.646V141.755C257.372 141.896 256.788 141.967 256.164 141.967C255.535 141.967 254.961 141.898 254.441 141.762V144.646H257.914ZM263.912 146.082C263.752 146.082 263.604 146.043 263.467 145.966C263.335 145.884 263.228 145.774 263.146 145.638C263.068 145.501 263.032 145.353 263.037 145.193C263.032 145.038 263.068 144.895 263.146 144.763C263.228 144.626 263.335 144.519 263.467 144.441C263.604 144.359 263.752 144.318 263.912 144.318C264.066 144.318 264.21 144.359 264.342 144.441C264.479 144.519 264.586 144.626 264.663 144.763C264.746 144.895 264.787 145.038 264.787 145.193C264.787 145.353 264.746 145.501 264.663 145.638C264.586 145.774 264.479 145.884 264.342 145.966C264.21 146.043 264.066 146.082 263.912 146.082Z" fill="#787878"/>
<path fill-rule="evenodd" clip-rule="evenodd" d="M62 253C62 254.054 61.9852 255.104 61.956 256.15C82.747 261.742 100.627 274.437 112.834 291.473C132.711 283.543 155.83 279 180.5 279C212.275 279 241.477 286.537 264.493 299.14C275.69 291.416 288.666 287 302.5 287C311.744 287 320.605 288.972 328.807 292.584C334.208 248.133 366.039 214 404.5 214C446.75 214 481 255.19 481 306C481 356.81 446.75 398 404.5 398C395.256 398 386.395 396.028 378.193 392.416C372.792 436.867 340.961 471 302.5 471C283.415 471 265.962 462.595 252.561 448.695C231.731 457.753 207.011 463 180.5 463C138.261 463 100.57 449.682 75.912 428.85C64.3516 434.085 51.5162 437 38 437C-12.8102 437 -54 395.81 -54 345C-54 340.731 -53.7092 336.529 -53.1463 332.414C-75.7935 316.44 -91 286.856 -91 253C-91 202.19 -56.7498 161 -14.5 161C27.7498 161 62 202.19 62 253Z" fill="url(#paint0_linear_599_8002)"/>
<path fill-rule="evenodd" clip-rule="evenodd" d="M88 448C103.742 448 118.252 442.729 129.862 433.855C141.698 454.834 164.195 469 190 469C228.108 469 259 438.108 259 400C259 361.892 228.108 331 190 331C174.258 331 159.748 336.271 148.138 345.145C136.302 324.166 113.805 310 88 310C49.8924 310 19 340.892 19 379C19 417.108 49.8924 448 88 448ZM392 483C445.019 483 488 452.108 488 414C488 375.892 445.019 345 392 345C338.981 345 296 375.892 296 414C296 452.108 338.981 483 392 483Z" fill="url(#paint1_linear_599_8002)"/>
</g>
<defs>
<linearGradient id="paint0_linear_599_8002" x1="195" y1="267" x2="195" y2="499" gradientUnits="userSpaceOnUse">
<stop stop-color="#18BB7A" stop-opacity="0.1"/>
<stop offset="1" stop-color="#18BB7A"/>
</linearGradient>
<linearGradient id="paint1_linear_599_8002" x1="139" y1="364.368" x2="139" y2="483.361" gradientUnits="userSpaceOnUse">
<stop stop-color="#18BB7A" stop-opacity="0.1"/>
<stop offset="1" stop-color="#18BB7A"/>
</linearGradient>
<clipPath id="clip0_599_8002">
<rect width="390" height="379" fill="white"/>
</clipPath>
</defs>
</svg>
