<svg width="112" height="141" viewBox="0 0 112 141" fill="none" xmlns="http://www.w3.org/2000/svg">
<g id="Group 368">
<path id="Vector 131" d="M99.2437 36.3557L82.5636 13.1227L54.3888 7.65869L30.7361 22.0584C28.7504 27.2213 24.6598 37.7854 24.1832 38.7385C23.7067 39.6917 23.5875 51.8443 23.5875 57.8015L36.0976 88.1831L41.4591 108.438H43.2462L52.182 110.225L53.3734 110.82L54.5648 111.416L64.692 99.5017L94.4779 65.5458L99.2437 36.3557Z" fill="#8BDDBC"/>
<g id="Union">
<mask id="path-2-outside-1_848_22558" maskUnits="userSpaceOnUse" x="-1.14092" y="-1.18013" width="114.607" height="142.661" fill="black">
<rect fill="white" x="-1.14092" y="-1.18013" width="114.607" height="142.661"/>
<path fill-rule="evenodd" clip-rule="evenodd" d="M76.8328 13.3643C79.302 13.8087 81.3465 14.0953 82.7131 14.1875C85.7006 18.153 91.3208 26.6671 93.797 36.5683C97.2033 50.189 90.1548 64.902 77.8377 77.7295C68.2196 87.7462 58.8189 102.887 55.0447 109.684L51.8707 109.035C56.5144 97.2191 64.7639 85.3918 71.8996 75.1694C79.136 64.8029 87.3651 52.2161 86.9601 38.4016C86.6573 28.0729 80.4825 17.9384 76.8328 13.3643ZM72.8727 12.5903C71.6668 12.3379 70.4065 12.06 69.1115 11.7597C66.97 11.2629 64.9409 10.7526 63.1096 10.2563C51.7946 28.2656 48.8016 48.2613 49.0577 71.8422C49.2563 90.1326 46.7198 103.005 45.2831 107.687L50.9514 108.847C51.4691 103.976 54.1914 91.142 61.5564 74.3998C70.9999 52.9328 76.0957 33.4648 72.8727 12.5903ZM84.5704 13.9915C84.5375 14.1333 84.2348 14.2068 83.7047 14.2183C92.1444 19.6021 106.115 32.7091 104.651 50.6356C102.865 72.5014 90.4466 81.3307 85.0585 85.1616C84.5082 85.5528 84.0313 85.8919 83.6465 86.1875C82.8997 86.761 81.8158 87.5354 80.4843 88.4868L80.4838 88.4871C74.5094 92.7559 63.5495 100.587 55.6826 109.815L55.8234 109.843L55.4004 111.911L53.8498 111.594L52.1582 119.863L53.7088 120.18L51.0655 133.102L35.5595 129.93L38.2028 117.008L40.2703 117.431L41.9619 109.162L39.8944 108.739L40.3174 106.671L40.552 106.719C36.9409 95.1435 29.9366 83.6375 26.1185 77.3655L26.1183 77.3653C25.2673 75.9673 24.5746 74.8294 24.113 74.0086C23.8752 73.5857 23.5697 73.0866 23.2173 72.5106C19.7664 66.8716 11.8128 53.8748 18.7573 33.0643C24.8802 14.7156 45.2317 8.50384 54.41 7.50946C50.6764 9.52791 41.0488 15.4384 34.2635 24.3895C25.7819 35.5783 26.4864 51.8773 32.7766 68.5112C37.6884 81.5004 40.3882 99.1164 41.1898 106.85L44.3639 107.499C44.7335 94.8088 41.7913 80.6919 39.2431 68.4882C36.6591 56.1127 34.0339 41.3055 39.8314 28.7599C44.3988 18.876 54.8776 11.7507 59.7672 9.29998C56.3175 8.2518 54.154 7.36655 54.2487 6.9582C54.4133 6.24862 61.3345 7.24784 69.7076 9.19003C78.0807 11.1322 84.735 13.2819 84.5704 13.9915ZM43.5125 109.479L52.2992 111.277L50.6076 119.546L41.8209 117.748L43.5125 109.479Z"/>
</mask>
<path fill-rule="evenodd" clip-rule="evenodd" d="M76.8328 13.3643C79.302 13.8087 81.3465 14.0953 82.7131 14.1875C85.7006 18.153 91.3208 26.6671 93.797 36.5683C97.2033 50.189 90.1548 64.902 77.8377 77.7295C68.2196 87.7462 58.8189 102.887 55.0447 109.684L51.8707 109.035C56.5144 97.2191 64.7639 85.3918 71.8996 75.1694C79.136 64.8029 87.3651 52.2161 86.9601 38.4016C86.6573 28.0729 80.4825 17.9384 76.8328 13.3643ZM72.8727 12.5903C71.6668 12.3379 70.4065 12.06 69.1115 11.7597C66.97 11.2629 64.9409 10.7526 63.1096 10.2563C51.7946 28.2656 48.8016 48.2613 49.0577 71.8422C49.2563 90.1326 46.7198 103.005 45.2831 107.687L50.9514 108.847C51.4691 103.976 54.1914 91.142 61.5564 74.3998C70.9999 52.9328 76.0957 33.4648 72.8727 12.5903ZM84.5704 13.9915C84.5375 14.1333 84.2348 14.2068 83.7047 14.2183C92.1444 19.6021 106.115 32.7091 104.651 50.6356C102.865 72.5014 90.4466 81.3307 85.0585 85.1616C84.5082 85.5528 84.0313 85.8919 83.6465 86.1875C82.8997 86.761 81.8158 87.5354 80.4843 88.4868L80.4838 88.4871C74.5094 92.7559 63.5495 100.587 55.6826 109.815L55.8234 109.843L55.4004 111.911L53.8498 111.594L52.1582 119.863L53.7088 120.18L51.0655 133.102L35.5595 129.93L38.2028 117.008L40.2703 117.431L41.9619 109.162L39.8944 108.739L40.3174 106.671L40.552 106.719C36.9409 95.1435 29.9366 83.6375 26.1185 77.3655L26.1183 77.3653C25.2673 75.9673 24.5746 74.8294 24.113 74.0086C23.8752 73.5857 23.5697 73.0866 23.2173 72.5106C19.7664 66.8716 11.8128 53.8748 18.7573 33.0643C24.8802 14.7156 45.2317 8.50384 54.41 7.50946C50.6764 9.52791 41.0488 15.4384 34.2635 24.3895C25.7819 35.5783 26.4864 51.8773 32.7766 68.5112C37.6884 81.5004 40.3882 99.1164 41.1898 106.85L44.3639 107.499C44.7335 94.8088 41.7913 80.6919 39.2431 68.4882C36.6591 56.1127 34.0339 41.3055 39.8314 28.7599C44.3988 18.876 54.8776 11.7507 59.7672 9.29998C56.3175 8.2518 54.154 7.36655 54.2487 6.9582C54.4133 6.24862 61.3345 7.24784 69.7076 9.19003C78.0807 11.1322 84.735 13.2819 84.5704 13.9915ZM43.5125 109.479L52.2992 111.277L50.6076 119.546L41.8209 117.748L43.5125 109.479Z" fill="#18BB7A"/>
<path d="M82.7131 14.1875L83.2722 13.7663L83.0795 13.5107L82.7602 13.4891L82.7131 14.1875ZM76.8328 13.3643L76.9568 12.6754L75.1244 12.3456L76.2856 13.8009L76.8328 13.3643ZM93.797 36.5683L94.4761 36.3985L93.797 36.5683ZM77.8377 77.7295L78.3427 78.2143L77.8377 77.7295ZM55.0447 109.684L54.9044 110.37L55.4074 110.473L55.6567 110.024L55.0447 109.684ZM51.8707 109.035L51.2192 108.779L50.9147 109.554L51.7304 109.721L51.8707 109.035ZM71.8996 75.1694L72.4736 75.5701L71.8996 75.1694ZM86.9601 38.4016L87.6598 38.3811L86.9601 38.4016ZM72.8727 12.5903L73.5645 12.4835L73.4905 12.0045L73.0161 11.9052L72.8727 12.5903ZM69.1115 11.7597L69.2697 11.0778L69.1115 11.7597ZM63.1096 10.2563L63.2927 9.58067L62.7926 9.44512L62.5169 9.88389L63.1096 10.2563ZM49.0577 71.8422L48.3577 71.8498L49.0577 71.8422ZM45.2831 107.687L44.6138 107.482L44.3878 108.219L45.1428 108.373L45.2831 107.687ZM50.9514 108.847L50.8111 109.533L51.5661 109.687L51.6475 108.921L50.9514 108.847ZM61.5564 74.3998L60.9157 74.1179L61.5564 74.3998ZM83.7047 14.2183L83.6896 13.5184L81.3841 13.5682L83.3283 14.8084L83.7047 14.2183ZM84.5704 13.9915L83.8885 13.8333L83.8885 13.8333L84.5704 13.9915ZM104.651 50.6356L105.349 50.6926L104.651 50.6356ZM85.0585 85.1616L85.4641 85.7321L85.0585 85.1616ZM83.6465 86.1875L83.2201 85.6323L83.6465 86.1875ZM80.4843 88.4868L80.8875 89.059L80.8912 89.0564L80.4843 88.4868ZM80.4838 88.4871L80.0806 87.915L80.0769 87.9176L80.4838 88.4871ZM55.6826 109.815L55.1499 109.361L54.3807 110.263L55.5423 110.5L55.6826 109.815ZM55.8234 109.843L56.5092 109.984L56.6495 109.298L55.9637 109.158L55.8234 109.843ZM55.4004 111.911L55.2601 112.597L55.9459 112.737L56.0862 112.051L55.4004 111.911ZM53.8498 111.594L53.9901 110.908L53.3043 110.768L53.164 111.453L53.8498 111.594ZM52.1582 119.863L51.4724 119.723L51.3321 120.408L52.0179 120.549L52.1582 119.863ZM53.7088 120.18L54.3946 120.32L54.5349 119.635L53.8491 119.494L53.7088 120.18ZM51.0655 133.102L50.9252 133.788L51.611 133.928L51.7513 133.242L51.0655 133.102ZM35.5595 129.93L34.8737 129.789L34.7334 130.475L35.4192 130.616L35.5595 129.93ZM38.2028 117.008L38.3431 116.322L37.6573 116.182L37.517 116.868L38.2028 117.008ZM40.2703 117.431L40.13 118.117L40.8158 118.257L40.9561 117.571L40.2703 117.431ZM41.9619 109.162L42.6477 109.302L42.788 108.616L42.1022 108.476L41.9619 109.162ZM39.8944 108.739L39.2086 108.599L39.0684 109.284L39.7542 109.425L39.8944 108.739ZM40.3174 106.671L40.4577 105.986L39.7719 105.845L39.6316 106.531L40.3174 106.671ZM40.552 106.719L40.4117 107.405L41.5733 107.643L41.2202 106.511L40.552 106.719ZM26.1185 77.3655L25.5198 77.7282L25.5206 77.7295L26.1185 77.3655ZM26.1183 77.3653L26.717 77.0026L26.7162 77.0013L26.1183 77.3653ZM24.113 74.0086L23.5029 74.3518L23.5029 74.3518L24.113 74.0086ZM23.2173 72.5106L22.6202 72.876L22.6202 72.876L23.2173 72.5106ZM18.7573 33.0643L19.4213 33.2859L18.7573 33.0643ZM54.41 7.50946L54.7429 8.12524L54.3346 6.81353L54.41 7.50946ZM34.2635 24.3895L34.8214 24.8123L34.2635 24.3895ZM32.7766 68.5112L32.1218 68.7588L32.7766 68.5112ZM41.1898 106.85L40.4936 106.922L40.5465 107.433L41.0495 107.536L41.1898 106.85ZM44.3639 107.499L44.2236 108.185L45.0394 108.352L45.0636 107.52L44.3639 107.499ZM39.2431 68.4882L38.5579 68.6313L39.2431 68.4882ZM39.8314 28.7599L40.4668 29.0535L39.8314 28.7599ZM59.7672 9.29998L60.0808 9.92577L61.6485 9.14002L59.9707 8.63021L59.7672 9.29998ZM54.2487 6.9582L53.5669 6.80003L53.5669 6.80003L54.2487 6.9582ZM69.7076 9.19003L69.5494 9.87193L69.7076 9.19003ZM52.2992 111.277L52.985 111.417L53.1253 110.731L52.4395 110.591L52.2992 111.277ZM43.5125 109.479L43.6528 108.793L42.967 108.653L42.8267 109.339L43.5125 109.479ZM50.6076 119.546L50.4673 120.232L51.1531 120.372L51.2934 119.686L50.6076 119.546ZM41.8209 117.748L41.1351 117.608L40.9948 118.294L41.6806 118.434L41.8209 117.748ZM82.7602 13.4891C81.4325 13.3995 79.4179 13.1184 76.9568 12.6754L76.7088 14.0532C79.1861 14.4991 81.2606 14.7911 82.6659 14.886L82.7602 13.4891ZM94.4761 36.3985C91.967 26.3655 86.2837 17.7637 83.2722 13.7663L82.154 14.6087C85.1174 18.5423 90.6747 26.9686 93.1179 36.7381L94.4761 36.3985ZM78.3427 78.2143C90.7189 65.3252 97.9706 50.3717 94.4761 36.3985L93.1179 36.7381C96.4361 50.0064 89.5906 64.4789 77.3328 77.2447L78.3427 78.2143ZM55.6567 110.024C59.4206 103.245 68.7867 88.1663 78.3427 78.2143L77.3328 77.2447C67.6526 87.3261 58.2173 102.528 54.4327 109.344L55.6567 110.024ZM51.7304 109.721L54.9044 110.37L55.185 108.998L52.011 108.349L51.7304 109.721ZM52.5222 109.291C57.1301 97.5662 65.327 85.8081 72.4736 75.5701L71.3256 74.7688C64.2008 84.9756 55.8987 96.8719 51.2192 108.779L52.5222 109.291ZM72.4736 75.5701C79.6922 65.2291 88.0725 52.4598 87.6598 38.3811L86.2604 38.4221C86.6576 51.9725 78.5799 64.3766 71.3256 74.7688L72.4736 75.5701ZM87.6598 38.3811C87.3505 27.8297 81.0673 17.5489 77.38 12.9277L76.2856 13.8009C79.8977 18.3278 85.9642 28.3161 86.2604 38.4221L87.6598 38.3811ZM73.0161 11.9052C71.8152 11.6538 70.5599 11.377 69.2697 11.0778L68.9534 12.4416C70.2532 12.7431 71.5183 13.022 72.7293 13.2755L73.0161 11.9052ZM69.2697 11.0778C67.136 10.5828 65.1152 10.0746 63.2927 9.58067L62.9265 10.9319C64.7667 11.4306 66.8041 11.943 68.9534 12.4416L69.2697 11.0778ZM62.5169 9.88389C51.0989 28.0571 48.101 48.2096 48.3577 71.8498L49.7576 71.8346C49.5022 48.313 52.4903 28.474 63.7023 10.6287L62.5169 9.88389ZM48.3577 71.8498C48.5557 90.0825 46.0255 102.881 44.6138 107.482L45.9523 107.893C47.414 103.129 49.9569 90.1827 49.7576 71.8346L48.3577 71.8498ZM45.1428 108.373L50.8111 109.533L51.0917 108.161L45.4233 107.001L45.1428 108.373ZM60.9157 74.1179C53.5274 90.913 50.782 103.817 50.2553 108.773L51.6475 108.921C52.1561 104.135 54.8553 91.3711 62.1971 74.6816L60.9157 74.1179ZM72.1809 12.6971C75.3746 33.3817 70.3355 52.7047 60.9157 74.1179L62.1971 74.6816C71.6643 53.1608 76.8168 33.5479 73.5645 12.4835L72.1809 12.6971ZM83.7198 14.9181C84.0028 14.912 84.2743 14.8893 84.4983 14.8317C84.6091 14.8032 84.7483 14.7564 84.8791 14.6709C85.013 14.5833 85.1899 14.4186 85.2523 14.1497L83.8885 13.8333C83.9344 13.6353 84.0612 13.533 84.1125 13.4994C84.1607 13.4679 84.185 13.4668 84.1497 13.4758C84.0817 13.4933 83.9368 13.5131 83.6896 13.5184L83.7198 14.9181ZM105.349 50.6926C106.097 41.5237 102.895 33.6054 98.4638 27.3201C94.0361 21.0399 88.3604 16.3579 84.0812 13.6281L83.3283 14.8084C87.4888 17.4625 93.0182 22.0259 97.3196 28.1268C101.617 34.2225 104.668 41.8209 103.953 50.5786L105.349 50.6926ZM85.4641 85.7321C90.9084 81.8613 103.537 72.8704 105.349 50.6926L103.953 50.5786C102.193 72.1324 89.9849 80.8001 84.6529 84.5911L85.4641 85.7321ZM84.0728 86.7426C84.4452 86.4567 84.9103 86.1259 85.4641 85.7321L84.6529 84.5911C84.1062 84.9798 83.6174 85.3272 83.2201 85.6323L84.0728 86.7426ZM80.8912 89.0564C82.2182 88.1082 83.3141 87.3253 84.0728 86.7426L83.2201 85.6323C82.4853 86.1966 81.4134 86.9626 80.0773 87.9173L80.8912 89.0564ZM80.8871 89.0593L80.8875 89.059L80.081 87.9147L80.0806 87.915L80.8871 89.0593ZM56.2153 110.269C64.0179 101.116 74.9073 93.3319 80.8908 89.0567L80.0769 87.9176C74.1115 92.1799 63.081 100.057 55.1499 109.361L56.2153 110.269ZM55.9637 109.158L55.8229 109.129L55.5423 110.5L55.6831 110.529L55.9637 109.158ZM56.0862 112.051L56.5092 109.984L55.1376 109.703L54.7146 111.771L56.0862 112.051ZM53.7095 112.28L55.2601 112.597L55.5407 111.225L53.9901 110.908L53.7095 112.28ZM52.844 120.003L54.5356 111.734L53.164 111.453L51.4724 119.723L52.844 120.003ZM53.8491 119.494L52.2985 119.177L52.0179 120.549L53.5685 120.866L53.8491 119.494ZM51.7513 133.242L54.3946 120.32L53.023 120.04L50.3797 132.962L51.7513 133.242ZM35.4192 130.616L50.9252 133.788L51.2058 132.416L35.6998 129.244L35.4192 130.616ZM37.517 116.868L34.8737 129.789L36.2453 130.07L38.8886 117.148L37.517 116.868ZM40.4106 116.745L38.3431 116.322L38.0625 117.694L40.13 118.117L40.4106 116.745ZM41.2761 109.022L39.5845 117.291L40.9561 117.571L42.6477 109.302L41.2761 109.022ZM39.7542 109.425L41.8216 109.848L42.1022 108.476L40.0347 108.053L39.7542 109.425ZM39.6316 106.531L39.2086 108.599L40.5802 108.879L41.0032 106.812L39.6316 106.531ZM40.6923 106.034L40.4577 105.986L40.1771 107.357L40.4117 107.405L40.6923 106.034ZM25.5206 77.7295C29.3444 84.011 36.3022 95.4464 39.8837 106.928L41.2202 106.511C37.5797 94.8405 30.5288 83.2641 26.7164 77.0015L25.5206 77.7295ZM25.5196 77.728L25.5198 77.7282L26.7172 77.0028L26.717 77.0026L25.5196 77.728ZM23.5029 74.3518C23.9718 75.1856 24.6723 76.3361 25.5204 77.7293L26.7162 77.0013C25.8623 75.5985 25.1773 74.4731 24.7231 73.6655L23.5029 74.3518ZM22.6202 72.876C22.9749 73.4557 23.2727 73.9426 23.5029 74.3518L24.7231 73.6655C24.4776 73.2289 24.1645 72.7174 23.8143 72.1453L22.6202 72.876ZM18.0933 32.8427C11.0497 53.9502 19.1334 67.1783 22.6202 72.876L23.8143 72.1453C20.3994 66.565 12.5759 53.7994 19.4213 33.2859L18.0933 32.8427ZM54.3346 6.81353C49.665 7.31944 42.188 9.14548 35.0925 13.1701C27.9912 17.1982 21.2252 23.4573 18.0933 32.8427L19.4213 33.2859C22.4123 24.3226 28.8835 18.3015 35.7832 14.3879C42.6889 10.4709 49.9768 8.69386 54.4854 8.20539L54.3346 6.81353ZM34.8214 24.8123C41.5184 15.9777 51.0445 10.1246 54.7429 8.12524L54.0771 6.89369C50.3083 8.93118 40.5793 14.8991 33.7057 23.9666L34.8214 24.8123ZM33.4313 68.2636C27.1714 51.7097 26.5592 35.7117 34.8214 24.8123L33.7057 23.9666C25.0046 35.445 25.8014 52.0449 32.1218 68.7588L33.4313 68.2636ZM41.8861 106.778C41.0823 99.023 38.3749 81.3367 33.4313 68.2636L32.1218 68.7588C37.0019 81.664 39.6942 99.2098 40.4936 106.922L41.8861 106.778ZM44.5042 106.813L41.3301 106.164L41.0495 107.536L44.2236 108.185L44.5042 106.813ZM38.5579 68.6313C41.11 80.8536 44.031 94.8864 43.6642 107.479L45.0636 107.52C45.4361 94.7313 42.4726 80.5302 39.9284 68.3452L38.5579 68.6313ZM39.1959 28.4662C33.2876 41.2518 35.9802 56.2863 38.5579 68.6313L39.9284 68.3452C37.3379 55.9391 34.7802 41.3593 40.4668 29.0535L39.1959 28.4662ZM59.4535 8.67418C56.9566 9.92566 53.065 12.3526 49.2178 15.7154C45.3726 19.0765 41.5351 23.4044 39.1959 28.4662L40.4668 29.0535C42.6951 24.2315 46.3807 20.0547 50.1392 16.7695C53.8956 13.486 57.6882 11.125 60.0808 9.92577L59.4535 8.67418ZM53.5669 6.80003C53.4773 7.18595 53.6864 7.47447 53.789 7.59248C53.9093 7.73071 54.0631 7.84482 54.2069 7.93745C54.5022 8.12769 54.9163 8.32807 55.4077 8.53452C56.4006 8.95161 57.8303 9.44308 59.5637 9.96974L59.9707 8.63021C58.2543 8.1087 56.8775 7.63345 55.9499 7.24378C55.4811 7.04686 55.1565 6.88385 54.965 6.7605C54.8654 6.69634 54.8388 6.66611 54.8453 6.67366C54.85 6.67901 54.8817 6.71573 54.9086 6.78384C54.9378 6.85809 54.963 6.97669 54.9306 7.11637L53.5669 6.80003ZM69.8658 8.50814C65.6663 7.53405 61.8225 6.79438 59 6.38689C57.5924 6.18367 56.4196 6.0602 55.5773 6.03477C55.1618 6.02223 54.7913 6.03211 54.502 6.08019C54.3609 6.10365 54.1948 6.14298 54.042 6.2201C53.8981 6.29275 53.6451 6.46291 53.5669 6.80003L54.9306 7.11637C54.873 7.3648 54.6933 7.45961 54.6729 7.46989C54.6437 7.48463 54.6514 7.47457 54.7316 7.46124C54.8851 7.43573 55.1477 7.42244 55.535 7.43413C56.2984 7.45718 57.41 7.57185 58.8 7.77252C61.5724 8.17279 65.3758 8.90383 69.5494 9.87193L69.8658 8.50814ZM85.2523 14.1497C85.3305 13.8125 85.1782 13.5483 85.0809 13.4198C84.9777 13.2833 84.8459 13.1748 84.7295 13.0916C84.491 12.9211 84.1626 12.7491 83.784 12.5775C83.0165 12.2295 81.9091 11.8241 80.5558 11.3869C77.8421 10.5102 74.0652 9.48223 69.8658 8.50814L69.5494 9.87193C73.7231 10.84 77.4599 11.858 80.1254 12.7191C81.4618 13.1508 82.5104 13.5372 83.2059 13.8526C83.5589 14.0126 83.7888 14.1401 83.9154 14.2306C83.9815 14.2779 83.984 14.2903 83.9643 14.2642C83.9505 14.246 83.8309 14.0818 83.8885 13.8333L85.2523 14.1497ZM52.4395 110.591L43.6528 108.793L43.3722 110.165L52.1589 111.962L52.4395 110.591ZM51.2934 119.686L52.985 111.417L51.6134 111.136L49.9218 119.405L51.2934 119.686ZM41.6806 118.434L50.4673 120.232L50.7479 118.86L41.9612 117.062L41.6806 118.434ZM42.8267 109.339L41.1351 117.608L42.5067 117.889L44.1983 109.619L42.8267 109.339Z" fill="#18BB7A" mask="url(#path-2-outside-1_848_22558)"/>
</g>
</g>
</svg>
