<svg width="79" height="44" viewBox="0 0 79 44" fill="none" xmlns="http://www.w3.org/2000/svg">
<g filter="url(#filter0_d_1828_10881)">
<path d="M18.532 2.88C18.532 4.704 18.548 6.128 18.58 7.152C18.612 8.176 18.66 9.088 18.724 9.888C18.468 9.824 17.972 9.776 17.236 9.744C16.532 9.712 15.716 9.696 14.788 9.696C13.86 9.664 12.948 9.648 12.052 9.648H6.964L6.388 18.912C7.092 18.56 7.876 18.24 8.74 17.952C9.604 17.632 10.692 17.472 12.004 17.472C13.956 17.472 15.556 17.792 16.804 18.432C18.052 19.072 18.98 19.952 19.588 21.072C20.196 22.192 20.5 23.456 20.5 24.864C20.5 26.72 20.036 28.4 19.108 29.904C18.18 31.408 16.932 32.688 15.364 33.744C13.828 34.832 12.132 35.664 10.276 36.24C8.42 36.816 6.548 37.104 4.66 37.104V36.24C6.068 36.24 7.444 36 8.788 35.52C10.132 35.072 11.332 34.384 12.388 33.456C13.476 32.56 14.34 31.44 14.98 30.096C15.62 28.752 15.94 27.168 15.94 25.344C15.94 23.328 15.412 21.76 14.356 20.64C13.332 19.488 11.844 18.912 9.892 18.912C9.06 18.912 8.356 18.992 7.78 19.152C7.236 19.28 6.628 19.472 5.956 19.728L5.476 19.44L6.388 5.136C6.74 5.2 7.14 5.248 7.588 5.28C8.068 5.312 8.532 5.328 8.98 5.328H14.404C15.716 5.328 16.548 5.152 16.9 4.8C17.252 4.416 17.492 3.776 17.62 2.88H18.532ZM28.4699 24.528C29.3019 24.528 30.0219 24.832 30.6299 25.44C31.2379 26.048 31.5419 26.768 31.5419 27.6C31.5419 28.432 31.2379 29.152 30.6299 29.76C30.0219 30.368 29.3019 30.672 28.4699 30.672C27.6379 30.672 26.9179 30.368 26.3099 29.76C25.7019 29.152 25.3979 28.432 25.3979 27.6C25.3979 26.768 25.7019 26.048 26.3099 25.44C26.9179 24.832 27.6379 24.528 28.4699 24.528ZM46.6596 4.752V25.056C46.6596 26.592 47.0116 27.632 47.7156 28.176C48.4196 28.72 49.6036 28.992 51.2676 28.992V30C50.6276 29.968 49.6836 29.936 48.4356 29.904C47.2196 29.84 45.9556 29.808 44.6436 29.808C43.1716 29.808 41.7476 29.84 40.3716 29.904C39.0276 29.936 37.9876 29.968 37.2516 30V28.992C38.8516 28.992 40.0996 28.736 40.9956 28.224C41.8916 27.68 42.3396 26.624 42.3396 25.056V13.44C42.3396 11.904 42.1796 10.768 41.8596 10.032C41.5396 9.296 40.9636 8.816 40.1316 8.592C39.3316 8.368 38.2116 8.256 36.7716 8.256V7.2C39.0756 7.136 40.9956 6.928 42.5316 6.576C44.0676 6.224 45.4436 5.616 46.6596 4.752ZM68.6973 4.608L68.8893 5.856L55.4013 24.96L55.3533 24.192H70.0413C71.3533 24.192 72.1853 24.016 72.5373 23.664C72.8893 23.28 73.1293 22.64 73.2573 21.744H74.0733C74.0733 23.312 74.0893 24.512 74.1213 25.344C74.1533 26.176 74.2013 26.944 74.2653 27.648C74.0413 27.584 73.6733 27.552 73.1613 27.552C72.6813 27.52 72.1053 27.488 71.4333 27.456C70.7613 27.424 70.0573 27.408 69.3213 27.408C68.5853 27.408 67.8493 27.408 67.1133 27.408H53.0973V26.4L68.6973 4.608ZM69.4653 4.608V36.768H65.6253V9.696L68.6973 4.608H69.4653Z" fill="black"/>
</g>
<defs>
<filter id="filter0_d_1828_10881" x="0.660156" y="0.879883" width="77.605" height="42.2241" filterUnits="userSpaceOnUse" color-interpolation-filters="sRGB">
<feFlood flood-opacity="0" result="BackgroundImageFix"/>
<feColorMatrix in="SourceAlpha" type="matrix" values="0 0 0 0 0 0 0 0 0 0 0 0 0 0 0 0 0 0 127 0" result="hardAlpha"/>
<feOffset dy="2"/>
<feGaussianBlur stdDeviation="2"/>
<feComposite in2="hardAlpha" operator="out"/>
<feColorMatrix type="matrix" values="0 0 0 0 0 0 0 0 0 0 0 0 0 0 0 0 0 0 0.1 0"/>
<feBlend mode="normal" in2="BackgroundImageFix" result="effect1_dropShadow_1828_10881"/>
<feBlend mode="normal" in="SourceGraphic" in2="effect1_dropShadow_1828_10881" result="shape"/>
</filter>
</defs>
</svg>
