<svg width="74" height="44" viewBox="0 0 74 44" fill="none" xmlns="http://www.w3.org/2000/svg">
<g filter="url(#filter0_d_2020_22133)">
<path d="M17.8914 2.88C17.8914 4.704 17.9074 6.128 17.9394 7.152C17.9714 8.176 18.0194 9.088 18.0834 9.888C17.8274 9.824 17.3314 9.776 16.5954 9.744C15.8914 9.712 15.0754 9.696 14.1474 9.696C13.2194 9.664 12.3074 9.648 11.4114 9.648H6.32338L5.74738 18.912C6.45138 18.56 7.23538 18.24 8.09938 17.952C8.96338 17.632 10.0514 17.472 11.3634 17.472C13.3154 17.472 14.9154 17.792 16.1634 18.432C17.4114 19.072 18.3394 19.952 18.9474 21.072C19.5554 22.192 19.8594 23.456 19.8594 24.864C19.8594 26.72 19.3954 28.4 18.4674 29.904C17.5394 31.408 16.2914 32.688 14.7234 33.744C13.1874 34.832 11.4914 35.664 9.63538 36.24C7.77938 36.816 5.90738 37.104 4.01938 37.104V36.24C5.42738 36.24 6.80338 36 8.14738 35.52C9.49138 35.072 10.6914 34.384 11.7474 33.456C12.8354 32.56 13.6994 31.44 14.3394 30.096C14.9794 28.752 15.2994 27.168 15.2994 25.344C15.2994 23.328 14.7714 21.76 13.7154 20.64C12.6914 19.488 11.2034 18.912 9.25138 18.912C8.41938 18.912 7.71538 18.992 7.13938 19.152C6.59538 19.28 5.98738 19.472 5.31538 19.728L4.83538 19.44L5.74738 5.136C6.09938 5.2 6.49938 5.248 6.94738 5.28C7.42738 5.312 7.89138 5.328 8.33938 5.328H13.7634C15.0754 5.328 15.9074 5.152 16.2594 4.8C16.6114 4.416 16.8514 3.776 16.9794 2.88H17.8914ZM27.8293 24.528C28.6613 24.528 29.3813 24.832 29.9893 25.44C30.5973 26.048 30.9013 26.768 30.9013 27.6C30.9013 28.432 30.5973 29.152 29.9893 29.76C29.3813 30.368 28.6613 30.672 27.8293 30.672C26.9973 30.672 26.2773 30.368 25.6693 29.76C25.0613 29.152 24.7573 28.432 24.7573 27.6C24.7573 26.768 25.0613 26.048 25.6693 25.44C26.2773 24.832 26.9973 24.528 27.8293 24.528ZM46.019 4.752V25.056C46.019 26.592 46.371 27.632 47.075 28.176C47.779 28.72 48.963 28.992 50.627 28.992V30C49.987 29.968 49.043 29.936 47.795 29.904C46.579 29.84 45.315 29.808 44.003 29.808C42.531 29.808 41.107 29.84 39.731 29.904C38.387 29.936 37.347 29.968 36.611 30V28.992C38.211 28.992 39.459 28.736 40.355 28.224C41.251 27.68 41.699 26.624 41.699 25.056V13.44C41.699 11.904 41.539 10.768 41.219 10.032C40.899 9.296 40.323 8.816 39.491 8.592C38.691 8.368 37.571 8.256 36.131 8.256V7.2C38.435 7.136 40.355 6.928 41.891 6.576C43.427 6.224 44.803 5.616 46.019 4.752ZM67.1101 2.88C67.1101 4.704 67.1261 6.128 67.1581 7.152C67.1901 8.176 67.2381 9.088 67.3021 9.888C67.0461 9.824 66.5501 9.776 65.8141 9.744C65.1101 9.712 64.2941 9.696 63.3661 9.696C62.4381 9.664 61.5261 9.648 60.6301 9.648H55.5421L54.9661 18.912C55.6701 18.56 56.4541 18.24 57.3181 17.952C58.1821 17.632 59.2701 17.472 60.5821 17.472C62.5341 17.472 64.1341 17.792 65.3821 18.432C66.6301 19.072 67.5581 19.952 68.1661 21.072C68.7741 22.192 69.0781 23.456 69.0781 24.864C69.0781 26.72 68.6141 28.4 67.6861 29.904C66.7581 31.408 65.5101 32.688 63.9421 33.744C62.4061 34.832 60.7101 35.664 58.8541 36.24C56.9981 36.816 55.1261 37.104 53.2381 37.104V36.24C54.6461 36.24 56.0221 36 57.3661 35.52C58.7101 35.072 59.9101 34.384 60.9661 33.456C62.0541 32.56 62.9181 31.44 63.5581 30.096C64.1981 28.752 64.5181 27.168 64.5181 25.344C64.5181 23.328 63.9901 21.76 62.9341 20.64C61.9101 19.488 60.4221 18.912 58.4701 18.912C57.6381 18.912 56.9341 18.992 56.3581 19.152C55.8141 19.28 55.2061 19.472 54.5341 19.728L54.0541 19.44L54.9661 5.136C55.3181 5.2 55.7181 5.248 56.1661 5.28C56.6461 5.312 57.1101 5.328 57.5581 5.328H62.9821C64.2941 5.328 65.1261 5.152 65.4781 4.8C65.8301 4.416 66.0701 3.776 66.1981 2.88H67.1101Z" fill="black"/>
</g>
<defs>
<filter id="filter0_d_2020_22133" x="0.0195312" y="0.879883" width="73.0586" height="42.2241" filterUnits="userSpaceOnUse" color-interpolation-filters="sRGB">
<feFlood flood-opacity="0" result="BackgroundImageFix"/>
<feColorMatrix in="SourceAlpha" type="matrix" values="0 0 0 0 0 0 0 0 0 0 0 0 0 0 0 0 0 0 127 0" result="hardAlpha"/>
<feOffset dy="2"/>
<feGaussianBlur stdDeviation="2"/>
<feComposite in2="hardAlpha" operator="out"/>
<feColorMatrix type="matrix" values="0 0 0 0 0 0 0 0 0 0 0 0 0 0 0 0 0 0 0.1 0"/>
<feBlend mode="normal" in2="BackgroundImageFix" result="effect1_dropShadow_2020_22133"/>
<feBlend mode="normal" in="SourceGraphic" in2="effect1_dropShadow_2020_22133" result="shape"/>
</filter>
</defs>
</svg>
