<svg width="80" height="51" viewBox="0 0 80 51" fill="none" xmlns="http://www.w3.org/2000/svg">
<g filter="url(#filter0_d_2020_22202)">
<path d="M18.4539 9.88C18.4539 11.704 18.4699 13.128 18.5019 14.152C18.5339 15.176 18.5819 16.088 18.6459 16.888C18.3899 16.824 17.8939 16.776 17.1579 16.744C16.4539 16.712 15.6379 16.696 14.7099 16.696C13.7819 16.664 12.8699 16.648 11.9739 16.648H6.88588L6.30988 25.912C7.01388 25.56 7.79788 25.24 8.66188 24.952C9.52588 24.632 10.6139 24.472 11.9259 24.472C13.8779 24.472 15.4779 24.792 16.7259 25.432C17.9739 26.072 18.9019 26.952 19.5099 28.072C20.1179 29.192 20.4219 30.456 20.4219 31.864C20.4219 33.72 19.9579 35.4 19.0299 36.904C18.1019 38.408 16.8539 39.688 15.2859 40.744C13.7499 41.832 12.0539 42.664 10.1979 43.24C8.34188 43.816 6.46988 44.104 4.58188 44.104V43.24C5.98988 43.24 7.36588 43 8.70988 42.52C10.0539 42.072 11.2539 41.384 12.3099 40.456C13.3979 39.56 14.2619 38.44 14.9019 37.096C15.5419 35.752 15.8619 34.168 15.8619 32.344C15.8619 30.328 15.3339 28.76 14.2779 27.64C13.2539 26.488 11.7659 25.912 9.81388 25.912C8.98188 25.912 8.27788 25.992 7.70188 26.152C7.15788 26.28 6.54988 26.472 5.87788 26.728L5.39788 26.44L6.30988 12.136C6.66188 12.2 7.06188 12.248 7.50988 12.28C7.98988 12.312 8.45388 12.328 8.90188 12.328H14.3259C15.6379 12.328 16.4699 12.152 16.8219 11.8C17.1739 11.416 17.4139 10.776 17.5419 9.88H18.4539ZM28.3918 31.528C29.2238 31.528 29.9438 31.832 30.5518 32.44C31.1598 33.048 31.4638 33.768 31.4638 34.6C31.4638 35.432 31.1598 36.152 30.5518 36.76C29.9438 37.368 29.2238 37.672 28.3918 37.672C27.5598 37.672 26.8398 37.368 26.2318 36.76C25.6238 36.152 25.3198 35.432 25.3198 34.6C25.3198 33.768 25.6238 33.048 26.2318 32.44C26.8398 31.832 27.5598 31.528 28.3918 31.528ZM46.5815 11.752V32.056C46.5815 33.592 46.9335 34.632 47.6375 35.176C48.3415 35.72 49.5255 35.992 51.1895 35.992V37C50.5495 36.968 49.6055 36.936 48.3575 36.904C47.1415 36.84 45.8775 36.808 44.5655 36.808C43.0935 36.808 41.6695 36.84 40.2935 36.904C38.9495 36.936 37.9095 36.968 37.1735 37V35.992C38.7735 35.992 40.0215 35.736 40.9175 35.224C41.8135 34.68 42.2615 33.624 42.2615 32.056V20.44C42.2615 18.904 42.1015 17.768 41.7815 17.032C41.4615 16.296 40.8855 15.816 40.0535 15.592C39.2535 15.368 38.1335 15.256 36.6935 15.256V14.2C38.9975 14.136 40.9175 13.928 42.4535 13.576C43.9895 13.224 45.3655 12.616 46.5815 11.752ZM71.1151 2.296L71.3071 3.256C70.2511 3.608 69.1631 4.056 68.0431 4.6C66.9551 5.144 65.8991 5.896 64.8751 6.856C63.8511 7.816 62.9391 9.048 62.1391 10.552C61.3391 12.024 60.6991 13.864 60.2191 16.072C59.7391 18.248 59.4991 20.872 59.4991 23.944C59.4991 27.304 59.7871 29.912 60.3631 31.768C60.9391 33.624 61.6591 34.92 62.5231 35.656C63.3871 36.36 64.2511 36.712 65.1151 36.712C66.0751 36.712 66.9551 36.392 67.7551 35.752C68.5871 35.08 69.2591 34.008 69.7711 32.536C70.2831 31.064 70.5391 29.144 70.5391 26.776C70.5391 24.472 70.2991 22.632 69.8191 21.256C69.3711 19.88 68.7471 18.888 67.9471 18.28C67.1791 17.672 66.3151 17.368 65.3551 17.368C64.6511 17.368 63.8831 17.528 63.0511 17.848C62.2191 18.168 61.4511 18.712 60.7471 19.48C60.0431 20.216 59.5311 21.272 59.2111 22.648L58.7311 22.936C58.9551 21.144 59.5151 19.752 60.4111 18.76C61.3071 17.736 62.3151 17.016 63.4351 16.6C64.5871 16.184 65.6271 15.976 66.5551 15.976C68.0591 15.976 69.4671 16.392 70.7791 17.224C72.0911 18.024 73.1471 19.208 73.9471 20.776C74.7791 22.312 75.1951 24.2 75.1951 26.44C75.1951 28.84 74.7151 30.888 73.7551 32.584C72.7951 34.248 71.5151 35.512 69.9151 36.376C68.3151 37.24 66.5551 37.672 64.6351 37.672C61.5951 37.672 59.1951 36.488 57.4351 34.12C55.7071 31.72 54.8431 28.36 54.8431 24.04C54.8431 21.128 55.1951 18.552 55.8991 16.312C56.6031 14.072 57.5311 12.136 58.6831 10.504C59.8671 8.84 61.1631 7.448 62.5711 6.328C64.0111 5.208 65.4671 4.328 66.9391 3.688C68.4431 3.016 69.8351 2.552 71.1151 2.296Z" fill="black"/>
</g>
<defs>
<filter id="filter0_d_2020_22202" x="0.581787" y="0.295898" width="78.6133" height="49.8081" filterUnits="userSpaceOnUse" color-interpolation-filters="sRGB">
<feFlood flood-opacity="0" result="BackgroundImageFix"/>
<feColorMatrix in="SourceAlpha" type="matrix" values="0 0 0 0 0 0 0 0 0 0 0 0 0 0 0 0 0 0 127 0" result="hardAlpha"/>
<feOffset dy="2"/>
<feGaussianBlur stdDeviation="2"/>
<feComposite in2="hardAlpha" operator="out"/>
<feColorMatrix type="matrix" values="0 0 0 0 0 0 0 0 0 0 0 0 0 0 0 0 0 0 0.1 0"/>
<feBlend mode="normal" in2="BackgroundImageFix" result="effect1_dropShadow_2020_22202"/>
<feBlend mode="normal" in="SourceGraphic" in2="effect1_dropShadow_2020_22202" result="shape"/>
</filter>
</defs>
</svg>
