<svg width="32" height="32" viewBox="0 0 32 32" fill="none" xmlns="http://www.w3.org/2000/svg">
<rect x="0.5" y="0.5" width="31" height="31" rx="15.5" stroke="#787878"/>
<mask id="path-2-outside-1_165_20584" maskUnits="userSpaceOnUse" x="11" y="9" width="10" height="14" fill="black">
<rect fill="white" x="11" y="9" width="10" height="14"/>
<path d="M14 13C14 13.5523 13.5523 14 13 14C12.4477 14 12 13.5523 12 13C12 12.4477 12.4477 12 13 12C13.5523 12 14 12.4477 14 13Z"/>
<path d="M20 18C20 18.5523 19.5523 19 19 19C18.4477 19 18 18.5523 18 18C18 17.4477 18.4477 17 19 17C19.5523 17 20 17.4477 20 18Z"/>
</mask>
<path d="M19.5 10C19.5 9.72386 19.2761 9.5 19 9.5C18.7239 9.5 18.5 9.72386 18.5 10H19.5ZM18.5 16C18.5 16.2761 18.7239 16.5 19 16.5C19.2761 16.5 19.5 16.2761 19.5 16H18.5ZM19.5 19.5C19.5 19.2239 19.2761 19 19 19C18.7239 19 18.5 19.2239 18.5 19.5H19.5ZM18.5 22C18.5 22.2761 18.7239 22.5 19 22.5C19.2761 22.5 19.5 22.2761 19.5 22H18.5ZM13.5 14.5C13.5 14.2239 13.2761 14 13 14C12.7239 14 12.5 14.2239 12.5 14.5H13.5ZM12.5 22C12.5 22.2761 12.7239 22.5 13 22.5C13.2761 22.5 13.5 22.2761 13.5 22H12.5ZM13.5 10C13.5 9.72386 13.2761 9.5 13 9.5C12.7239 9.5 12.5 9.72386 12.5 10H13.5ZM12.5 11.5C12.5 11.7761 12.7239 12 13 12C13.2761 12 13.5 11.7761 13.5 11.5H12.5ZM18.5 10V16H19.5V10H18.5ZM18.5 19.5V22H19.5V19.5H18.5ZM12.5 14.5V22H13.5V14.5H12.5ZM12.5 10V11.5H13.5V10H12.5ZM13 13V15C14.1046 15 15 14.1046 15 13H13ZM13 13H11C11 14.1046 11.8954 15 13 15V13ZM13 13V11C11.8954 11 11 11.8954 11 13H13ZM13 13H15C15 11.8954 14.1046 11 13 11V13ZM19 18V20C20.1046 20 21 19.1046 21 18H19ZM19 18H17C17 19.1046 17.8954 20 19 20V18ZM19 18V16C17.8954 16 17 16.8954 17 18H19ZM19 18H21C21 16.8954 20.1046 16 19 16V18Z" fill="#787878" mask="url(#path-2-outside-1_165_20584)"/>
</svg>
