<svg xmlns="http://www.w3.org/2000/svg" width="20" height="21" viewBox="0 0 20 21" fill="none">
  <path d="M17.5 5.48332C14.725 5.20832 11.9333 5.06665 9.15 5.06665C7.5 5.06665 5.85 5.14998 4.2 5.31665L2.5 5.48332" stroke="#18BB7A" stroke-linecap="round" stroke-linejoin="round"/>
  <path d="M7.08331 4.64175L7.26665 3.55008C7.39998 2.75841 7.49998 2.16675 8.90831 2.16675H11.0916C12.5 2.16675 12.6083 2.79175 12.7333 3.55841L12.9166 4.64175" stroke="#18BB7A" stroke-linecap="round" stroke-linejoin="round"/>
  <path d="M15.7084 8.1167L15.1667 16.5084C15.075 17.8167 15 18.8334 12.675 18.8334H7.32502C5.00002 18.8334 4.92502 17.8167 4.83335 16.5084L4.29169 8.1167" stroke="#18BB7A" stroke-linecap="round" stroke-linejoin="round"/>
  <path d="M8.60834 14.25H11.3833" stroke="#18BB7A" stroke-linecap="round" stroke-linejoin="round"/>
  <path d="M7.91669 10.9167H12.0834" stroke="#18BB7A" stroke-linecap="round" stroke-linejoin="round"/>
</svg>