<svg width="19" height="19" viewBox="0 0 19 19" fill="none" xmlns="http://www.w3.org/2000/svg">
<path d="M9.52018 0.0400391C6.97814 0.0400391 6.65938 0.0508232 5.66103 0.0963561C4.66477 0.141805 3.98436 0.300056 3.38898 0.531399C2.77348 0.7706 2.25149 1.09067 1.73115 1.61101C1.21079 2.13135 0.890717 2.65339 0.651544 3.26889C0.420145 3.86425 0.26195 4.54465 0.216445 5.54091C0.170912 6.53927 0.160156 6.85802 0.160156 9.40007C0.160156 11.9421 0.170912 12.2608 0.216445 13.2592C0.26195 14.2554 0.420145 14.9358 0.651544 15.5312C0.890745 16.1467 1.21081 16.6687 1.73115 17.1891C2.25152 17.7094 2.77348 18.0295 3.38898 18.2687C3.98436 18.5 4.66477 18.6582 5.66103 18.7037C6.65938 18.7493 6.97814 18.76 9.52018 18.76C12.0622 18.76 12.3809 18.7493 13.3793 18.7037C14.3755 18.6583 15.0559 18.5 15.6513 18.2687C16.2668 18.0295 16.7888 17.7094 17.3092 17.1891C17.8295 16.6687 18.1496 16.1467 18.3888 15.5312C18.6201 14.9358 18.7784 14.2554 18.8238 13.2592C18.8694 12.2608 18.8802 11.9421 18.8802 9.40007C18.8802 6.85802 18.8694 6.53927 18.8238 5.54091C18.7784 4.54465 18.6201 3.86425 18.3888 3.26889C18.1496 2.65339 17.8295 2.13135 17.3092 1.61101C16.7888 1.09067 16.2668 0.7706 15.6513 0.531399C15.0559 0.300056 14.3755 0.141805 13.3793 0.0963561C12.3809 0.0508232 12.0622 0.0400391 9.52018 0.0400391ZM9.52018 1.72651C12.0194 1.72651 12.3154 1.73607 13.3024 1.7811C14.215 1.82271 14.7106 1.97519 15.0404 2.10337C15.4773 2.27319 15.7891 2.476 16.1166 2.80353C16.4442 3.13107 16.647 3.44289 16.8168 3.87977C16.945 4.20959 17.0975 4.70521 17.1391 5.6178C17.1841 6.60478 17.1937 6.90083 17.1937 9.40004C17.1937 11.8993 17.1841 12.1953 17.1391 13.1823C17.0975 14.0949 16.945 14.5905 16.8168 14.9203C16.647 15.3572 16.4442 15.669 16.1166 15.9965C15.7891 16.3241 15.4773 16.5269 15.0404 16.6967C14.7106 16.8249 14.215 16.9774 13.3024 17.019C12.3156 17.064 12.0196 17.0736 9.52016 17.0736C7.02075 17.0736 6.72478 17.064 5.73791 17.0189C4.8253 16.9774 4.32971 16.8249 3.99991 16.6967C3.56298 16.5269 3.25118 16.3241 2.92368 15.9965C2.59614 15.669 2.3933 15.3572 2.22349 14.9203C2.09531 14.5905 1.94285 14.0949 1.90122 13.1823C1.85619 12.1953 1.84663 11.8993 1.84663 9.40004C1.84663 6.90083 1.85619 6.60478 1.90122 5.6178C1.94285 4.70519 2.09531 4.20959 2.22349 3.8798C2.3933 3.44286 2.59614 3.13107 2.92365 2.80356C3.25118 2.47599 3.563 2.27319 3.99989 2.10337C4.32971 1.97519 4.82533 1.82271 5.73791 1.7811C6.7249 1.73607 7.02094 1.72651 9.52016 1.72651" fill="#007C4A"/>
<path d="M9.51989 12.5199C7.79672 12.5199 6.39985 11.123 6.39985 9.39991C6.39985 7.67674 7.79672 6.27987 9.51989 6.27987C11.243 6.27987 12.6399 7.67674 12.6399 9.39991C12.6399 11.123 11.243 12.5199 9.51989 12.5199ZM9.51989 4.5934C6.8653 4.5934 4.71338 6.74532 4.71338 9.39991C4.71338 12.0544 6.8653 14.2064 9.51989 14.2064C12.1744 14.2064 14.3263 12.0544 14.3263 9.39991C14.3263 6.74532 12.1744 4.5934 9.51989 4.5934ZM15.6395 4.40349C15.6395 5.02384 15.1366 5.52668 14.5162 5.52668C13.896 5.52668 13.3931 5.02384 13.3931 4.40349C13.3931 3.78317 13.896 3.28027 14.5162 3.28027C15.1366 3.28027 15.6395 3.78317 15.6395 4.40349Z" fill="#007C4A"/>
</svg>
