<svg width="21" height="20" viewBox="0 0 21 20" fill="none" xmlns="http://www.w3.org/2000/svg">
<g id="Union">
<path fill-rule="evenodd" clip-rule="evenodd" d="M10.5 15.75C15.7467 15.75 20 12.3921 20 8.25C20 4.10786 15.7467 0.75 10.5 0.75C5.25329 0.75 1 4.10786 1 8.25C1 10.9108 2.7551 13.248 5.4012 14.5793L4 19.25L9.72724 15.7255C9.98212 15.7417 10.2398 15.75 10.5 15.75Z" fill="#453838"/>
<path d="M5.4012 14.5793L5.88011 14.723C5.94983 14.4906 5.84265 14.2417 5.62593 14.1327L5.4012 14.5793ZM4 19.25L3.52109 19.1063C3.46146 19.3051 3.53079 19.52 3.6953 19.6464C3.85982 19.7729 4.08533 19.7846 4.26205 19.6758L4 19.25ZM9.72724 15.7255L9.75895 15.2266C9.65582 15.22 9.5532 15.2456 9.46519 15.2997L9.72724 15.7255ZM19.5 8.25C19.5 12.0123 15.5872 15.25 10.5 15.25V16.25C15.9062 16.25 20.5 12.772 20.5 8.25H19.5ZM10.5 1.25C15.5872 1.25 19.5 4.48771 19.5 8.25H20.5C20.5 3.72802 15.9062 0.25 10.5 0.25V1.25ZM1.5 8.25C1.5 4.48771 5.41282 1.25 10.5 1.25V0.25C5.09377 0.25 0.5 3.72802 0.5 8.25H1.5ZM5.62593 14.1327C3.10052 12.8621 1.5 10.6735 1.5 8.25H0.5C0.5 11.1481 2.40968 13.6339 5.17647 15.026L5.62593 14.1327ZM4.47891 19.3937L5.88011 14.723L4.92228 14.4357L3.52109 19.1063L4.47891 19.3937ZM9.46519 15.2997L3.73795 18.8242L4.26205 19.6758L9.98929 16.1514L9.46519 15.2997ZM10.5 15.25C10.2504 15.25 10.0033 15.2421 9.75895 15.2266L9.69553 16.2245C9.96096 16.2414 10.2293 16.25 10.5 16.25V15.25Z" fill="#453838"/>
</g>
</svg>
