<svg width="48" height="48" viewBox="0 0 48 48" fill="none" xmlns="http://www.w3.org/2000/svg">
<circle cx="24" cy="24" r="24" fill="#FFE0DF"/>
<circle cx="24" cy="24" r="12.25" stroke="#FF635E" stroke-width="1.5"/>
<path d="M24.6699 25.1426H23.3164L23.1934 18.1016H24.793L24.6699 25.1426ZM24 28.0957C23.8268 28.0957 23.6628 28.0524 23.5078 27.9658C23.3574 27.8792 23.2389 27.7607 23.1523 27.6104C23.0658 27.46 23.0247 27.2982 23.0293 27.125C23.0247 26.9518 23.0658 26.79 23.1523 26.6396C23.2389 26.4893 23.3574 26.3708 23.5078 26.2842C23.6628 26.1976 23.8268 26.1543 24 26.1543C24.1686 26.1543 24.3281 26.1976 24.4785 26.2842C24.6289 26.3708 24.7474 26.4893 24.834 26.6396C24.9251 26.79 24.9707 26.9518 24.9707 27.125C24.9707 27.2982 24.9251 27.46 24.834 27.6104C24.7474 27.7607 24.6289 27.8792 24.4785 27.9658C24.3281 28.0524 24.1686 28.0957 24 28.0957Z" fill="#FF635E"/>
</svg>
